<svg width="44" height="44" viewBox="0 0 44 44" fill="none" xmlns="http://www.w3.org/2000/svg">
<path d="M13.2917 27.5C12.54 27.5 11.9167 26.8767 11.9167 26.125V24.75H8.25V26.125C8.25 26.8767 7.62667 27.5 6.875 27.5C6.12333 27.5 5.5 26.8767 5.5 26.125V18.3333C5.5 17.325 6.325 16.5 7.33333 16.5H12.8333C13.8417 16.5 14.6667 17.325 14.6667 18.3333V26.125C14.6667 26.8767 14.0433 27.5 13.2917 27.5ZM11.9167 19.25H8.25V22H11.9167V19.25ZM24.75 22C25.7583 22 26.5833 22.825 26.5833 23.8333V25.6667C26.5833 26.675 25.7583 27.5 24.75 27.5H19.25C18.2417 27.5 17.4167 26.675 17.4167 25.6667V18.3333C17.4167 17.325 18.2417 16.5 19.25 16.5H24.75C25.7583 16.5 26.5833 17.325 26.5833 18.3333V20.1667C26.5833 21.175 25.7583 22 24.75 22ZM20.1667 19.25V20.625H23.8333V19.25H20.1667ZM23.8333 23.375H20.1667V24.75H23.8333V23.375ZM38.5 18.7917C38.5 19.5433 37.8767 20.1667 37.125 20.1667C36.8404 20.1651 36.5631 20.0764 36.3304 19.9126C36.0976 19.7487 35.9207 19.5175 35.8233 19.25H32.0833V24.75H35.8233C36.0067 24.2183 36.52 23.8333 37.125 23.8333C37.8767 23.8333 38.5 24.4567 38.5 25.2083V25.6667C38.5 26.675 37.675 27.5 36.6667 27.5H31.1667C30.1583 27.5 29.3333 26.675 29.3333 25.6667V18.3333C29.3333 17.325 30.1583 16.5 31.1667 16.5H36.6667C37.675 16.5 38.5 17.325 38.5 18.3333V18.7917Z" fill="white"/>
</svg>
