<svg width="1366" height="603" viewBox="0 0 1366 603" fill="none" xmlns="http://www.w3.org/2000/svg">
<g clip-path="url(#clip0_56_868)">
<path fill-rule="evenodd" clip-rule="evenodd" d="M717.767 210.354C718.844 210.052 719.948 210.682 720.237 211.758C720.539 212.834 719.908 213.937 718.831 214.239C717.649 214.567 309.924 331.025 2.66641 198.384C1.64191 197.937 1.16906 196.756 1.61564 195.732C2.04908 194.709 3.24433 194.236 4.26883 194.669C310.227 326.746 716.598 210.682 717.781 210.354H717.767Z" fill="#C7BDDB"/>
<path fill-rule="evenodd" clip-rule="evenodd" d="M721.143 221.93C722.181 221.536 723.35 222.061 723.744 223.098C724.138 224.135 723.612 225.303 722.575 225.697C721.524 226.104 361.872 367.197 1.18217 204.566C0.170806 204.106 -0.288906 202.912 0.170806 201.901C0.630517 200.891 1.81263 200.431 2.83713 200.891C361.99 362.826 720.105 222.324 721.143 221.93Z" fill="#C7BDDB"/>
<path fill-rule="evenodd" clip-rule="evenodd" d="M726.817 205.261C725.766 204.92 725.175 203.778 725.53 202.715C725.871 201.652 727.014 201.074 728.065 201.415C728.971 201.704 1039.64 305.549 1273.52 164.547C1274.46 163.97 1275.71 164.285 1276.28 165.23C1276.86 166.188 1276.54 167.422 1275.59 167.999C1040.12 309.972 727.723 205.537 726.817 205.248V205.261Z" fill="#C7BDDB"/>
<path fill-rule="evenodd" clip-rule="evenodd" d="M723.652 216.68C722.706 216.089 722.417 214.842 723.008 213.897C723.599 212.952 724.834 212.663 725.779 213.254C726.502 213.7 973.078 370.662 1220.34 225.841C1221.3 225.277 1222.53 225.605 1223.08 226.563C1223.63 227.521 1223.32 228.755 1222.36 229.319C972.973 375.387 724.374 217.126 723.638 216.68H723.652Z" fill="#C7BDDB"/>
<path fill-rule="evenodd" clip-rule="evenodd" d="M686.454 214.462H749.763C752.824 214.462 755.332 216.982 755.332 220.04C755.332 223.111 752.824 225.618 749.763 225.618H686.454C683.394 225.618 680.885 223.111 680.885 220.04C680.885 216.969 683.394 214.462 686.454 214.462Z" fill="#C7BDDB"/>
<path fill-rule="evenodd" clip-rule="evenodd" d="M659.883 236.394H784.307C787.039 236.394 789.285 238.638 789.285 241.381C789.285 244.124 787.039 246.369 784.307 246.369H659.883C657.151 246.369 654.905 244.124 654.905 241.381C654.905 238.638 657.151 236.394 659.883 236.394Z" fill="#C7BDDB"/>
<path fill-rule="evenodd" clip-rule="evenodd" d="M715.324 187.739H720.906C724.19 187.739 726.883 190.43 726.883 193.724V410.273C726.883 413.567 724.19 416.258 720.906 416.258H715.324C712.04 416.258 709.348 413.567 709.348 410.273V193.724C709.348 190.43 712.04 187.739 715.324 187.739Z" fill="#C7BDDB"/>
<path d="M745.994 260.32H723.691V321.732H745.994V260.32Z" fill="#C7BDDB"/>
<path d="M712.146 290.875H696.016V335.29H712.146V290.875Z" fill="#C7BDDB"/>
<path fill-rule="evenodd" clip-rule="evenodd" d="M665.505 235.291C670.194 235.291 674.016 234.674 674.016 233.913C674.016 233.152 670.194 232.535 665.505 232.535C660.816 232.535 656.993 233.152 656.993 233.913C656.993 234.674 660.816 235.291 665.505 235.291Z" fill="#C7BDDB"/>
<path fill-rule="evenodd" clip-rule="evenodd" d="M665.505 231.38C669.051 231.38 671.954 230.763 671.954 230.002C671.954 229.24 669.064 228.624 665.505 228.624C661.945 228.624 659.056 229.24 659.056 230.002C659.056 230.763 661.945 231.38 665.505 231.38Z" fill="#C7BDDB"/>
<path fill-rule="evenodd" clip-rule="evenodd" d="M665.505 227.521C666.332 227.521 667.002 228.19 667.002 229.017V240.383C667.002 241.21 666.332 241.88 665.505 241.88C664.69 241.88 664.007 241.21 664.007 240.383V229.017C664.007 228.19 664.677 227.521 665.505 227.521Z" fill="#C7BDDB"/>
<path fill-rule="evenodd" clip-rule="evenodd" d="M775.993 235.291C780.682 235.291 784.504 234.674 784.504 233.913C784.504 233.152 780.682 232.535 775.993 232.535C771.304 232.535 767.482 233.152 767.482 233.913C767.482 234.674 771.304 235.291 775.993 235.291Z" fill="#C7BDDB"/>
<path fill-rule="evenodd" clip-rule="evenodd" d="M775.993 231.38C779.539 231.38 782.442 230.763 782.442 230.002C782.442 229.24 779.552 228.624 775.993 228.624C772.434 228.624 769.544 229.24 769.544 230.002C769.544 230.763 772.434 231.38 775.993 231.38Z" fill="#C7BDDB"/>
<path fill-rule="evenodd" clip-rule="evenodd" d="M775.993 227.521C776.807 227.521 777.49 228.19 777.49 229.017V240.383C777.49 241.21 776.82 241.88 775.993 241.88C775.179 241.88 774.496 241.21 774.496 240.383V229.017C774.496 228.19 775.165 227.521 775.993 227.521Z" fill="#C7BDDB"/>
<path fill-rule="evenodd" clip-rule="evenodd" d="M743.892 213.359C748.581 213.359 752.403 212.742 752.403 211.981C752.403 211.22 748.581 210.603 743.892 210.603C739.203 210.603 735.381 211.22 735.381 211.981C735.381 212.742 739.203 213.359 743.892 213.359Z" fill="#C7BDDB"/>
<path fill-rule="evenodd" clip-rule="evenodd" d="M743.892 209.448C747.438 209.448 750.341 208.831 750.341 208.07C750.341 207.309 747.451 206.692 743.892 206.692C740.332 206.692 737.443 207.309 737.443 208.07C737.443 208.831 740.346 209.448 743.892 209.448Z" fill="#C7BDDB"/>
<path fill-rule="evenodd" clip-rule="evenodd" d="M743.892 205.589C744.706 205.589 745.389 206.258 745.389 207.085V218.452C745.389 219.278 744.719 219.948 743.892 219.948C743.064 219.948 742.395 219.278 742.395 218.452V207.085C742.395 206.258 743.064 205.589 743.892 205.589Z" fill="#C7BDDB"/>
<path fill-rule="evenodd" clip-rule="evenodd" d="M692.325 213.359C697.014 213.359 700.837 212.742 700.837 211.981C700.837 211.22 697.014 210.603 692.325 210.603C687.636 210.603 683.814 211.22 683.814 211.981C683.814 212.742 687.636 213.359 692.325 213.359Z" fill="#C7BDDB"/>
<path fill-rule="evenodd" clip-rule="evenodd" d="M692.326 209.448C695.872 209.448 698.775 208.831 698.775 208.07C698.775 207.309 695.885 206.692 692.326 206.692C688.766 206.692 685.876 207.309 685.876 208.07C685.876 208.831 688.779 209.448 692.326 209.448Z" fill="#C7BDDB"/>
<path fill-rule="evenodd" clip-rule="evenodd" d="M692.325 205.589C693.14 205.589 693.823 206.258 693.823 207.085V218.452C693.823 219.278 693.153 219.948 692.325 219.948C691.498 219.948 690.828 219.278 690.828 218.452V207.085C690.828 206.258 691.498 205.589 692.325 205.589Z" fill="#C7BDDB"/>
<path d="M175.597 287.213H26.2168V523.738H175.597V287.213Z" fill="#C7BDDB"/>
<path fill-rule="evenodd" clip-rule="evenodd" d="M100.9 234.464L144.323 261.173L187.759 287.896H100.9H14.041L57.4641 261.173L100.9 234.464Z" fill="#C7BDDB"/>
<path d="M62.8493 309.303H46.1289V326.037H62.8493V309.303Z" fill="#E3DEED"/>
<path d="M82.7614 309.303H66.041V326.037H82.7614V309.303Z" fill="#E3DEED"/>
<path d="M142.511 357.038H125.79V373.772H142.511V357.038Z" fill="#E3DEED"/>
<path d="M162.436 357.038H145.716V373.772H162.436V357.038Z" fill="#E3DEED"/>
<path d="M142.511 377.697H125.79V394.444H142.511V377.697Z" fill="#E3DEED"/>
<path d="M162.436 377.697H145.716V394.444H162.436V377.697Z" fill="#E3DEED"/>
<path d="M102.673 433.268H50.7522V524.46H102.673V433.268Z" fill="#E3DEED"/>
<path d="M1350.69 213.123H1201.31V449.648H1350.69V213.123Z" fill="#C7BDDB"/>
<path fill-rule="evenodd" clip-rule="evenodd" d="M1275.99 160.374L1232.57 187.083L1189.13 213.805H1275.99H1362.85L1319.42 187.083L1275.99 160.374Z" fill="#C7BDDB"/>
<path d="M1330.77 235.212H1314.05V251.947H1330.77V235.212Z" fill="#E3DEED"/>
<path d="M1310.85 235.212H1294.13V251.947H1310.85V235.212Z" fill="#E3DEED"/>
<path d="M1251.1 282.948H1234.38V299.695H1251.1V282.948Z" fill="#E3DEED"/>
<path d="M1231.19 282.948H1214.47V299.695H1231.19V282.948Z" fill="#E3DEED"/>
<path d="M1251.1 303.606H1234.38V320.354H1251.1V303.606Z" fill="#E3DEED"/>
<path d="M1231.19 303.606H1214.47V320.354H1231.19V303.606Z" fill="#E3DEED"/>
<path d="M1326.14 359.177H1274.22V450.37H1326.14V359.177Z" fill="#E3DEED"/>
<path fill-rule="evenodd" clip-rule="evenodd" d="M112.419 430.039C112.419 430.039 84.1405 438.072 83.6939 429.068C83.2473 420.064 104.039 418.844 104.039 418.844C104.039 418.844 78.2956 411.467 79.3595 398.999C80.4234 386.53 110.094 404.984 110.094 404.984C110.094 404.984 95.0685 376.542 100.506 365.228C105.931 353.914 123.663 360.136 129.875 401.519C142.471 352.943 161.792 375.833 155.304 393.591C178.355 373.602 186.223 402.949 171.21 406.913C206.043 393.316 204.375 418.673 195.272 419.828C195.272 419.828 217.404 412.491 218.744 420.563C219.637 425.944 201.63 427.44 189.48 427.847C191.752 429.015 193.315 430.682 192.856 433.084C191.477 440.211 167.02 428.451 167.02 428.451L167.427 428.333L112.432 430.039H112.419Z" fill="#467B49"/>
<path fill-rule="evenodd" clip-rule="evenodd" d="M0 539.724C233.73 457.418 335.589 531.246 541.33 603H1364.92L1366 595.715V463.311C870.483 353.849 780.603 594.547 444.094 458.087C353.663 421.416 178.066 398.697 0 449.923V539.738V539.724Z" fill="#3CA642"/>
<path fill-rule="evenodd" clip-rule="evenodd" d="M1309.05 453.441C1309.05 453.441 1351 465.175 1350.38 454.11C1349.77 443.046 1319.57 440.198 1319.57 440.198C1319.57 440.198 1355.7 432.769 1352.42 417.334C1349.14 401.899 1308.89 422.729 1308.89 422.729C1308.89 422.729 1326.58 388.643 1317.17 374.337C1307.73 360.044 1283.02 366.567 1279.86 417.164C1254.85 356.487 1230.18 383.459 1242.04 405.758C1205.95 379.639 1198.7 415.3 1220.94 421.154C1168.74 402.136 1174.71 433.517 1188.03 435.526C1188.03 435.526 1155.05 425.052 1154.24 434.922C1153.44 444.792 1213.02 446.629 1213.02 446.629L1309.06 453.441H1309.05Z" fill="#467B49"/>
<path fill-rule="evenodd" clip-rule="evenodd" d="M1310.91 478.077C1387.09 472.197 1371.27 434.843 1316.52 455.777C1326.11 429.265 1307.01 423.149 1297.96 447.653C1297.96 447.653 1298.75 399.025 1278.01 399.996C1257.27 400.968 1278.29 442.718 1278.29 442.718C1251.49 398.316 1226.89 428.294 1256.48 445.579C1219.23 424.356 1217.15 459.912 1251.32 465.752C1265.36 467.301 1294.89 476.843 1310.94 478.077H1310.91Z" fill="#17591B"/>
<path fill-rule="evenodd" clip-rule="evenodd" d="M80.1738 440.565C137.992 415.431 116.872 390.297 79.2675 421.508C80.4497 398.054 64.1627 398.382 62.9149 420.117C62.9149 420.117 52.0395 381.621 36.1335 387.96C20.2406 394.3 46.4441 421.521 46.4441 421.521C15.1312 393.775 3.08677 423.988 30.1835 429.645C-3.78263 422.965 2.99483 451.511 30.9322 446.918C42.2148 444.358 67.4201 443.925 80.187 440.578L80.1738 440.565Z" fill="#17591B"/>
<path fill-rule="evenodd" clip-rule="evenodd" d="M1306.22 503.158C1307.16 502.502 1310.23 504.445 1313.08 507.489C1315.94 510.534 1317.51 513.54 1316.57 514.196C1315.64 514.853 1312.57 512.91 1309.72 509.865C1306.85 506.82 1305.31 503.814 1306.22 503.158Z" fill="#467B49"/>
<path fill-rule="evenodd" clip-rule="evenodd" d="M1321.07 498.63C1319.88 498.63 1318.82 501.872 1318.7 505.849C1318.57 509.826 1319.42 513.055 1320.61 513.041C1321.79 513.041 1322.85 509.8 1322.97 505.823C1323.1 501.846 1322.25 498.617 1321.07 498.63Z" fill="#467B49"/>
<path fill-rule="evenodd" clip-rule="evenodd" d="M1336.39 503.158C1335.46 502.502 1332.39 504.445 1329.54 507.489C1326.68 510.534 1325.11 513.54 1326.04 514.196C1326.98 514.853 1330.05 512.91 1332.9 509.865C1335.76 506.82 1337.31 503.814 1336.39 503.158Z" fill="#467B49"/>
<path fill-rule="evenodd" clip-rule="evenodd" d="M530.546 544.2C531.479 543.544 534.553 545.486 537.403 548.531C540.266 551.576 541.829 554.582 540.897 555.238C539.964 555.895 536.891 553.952 534.04 550.907C531.177 547.862 529.627 544.856 530.546 544.2Z" fill="#467B49"/>
<path fill-rule="evenodd" clip-rule="evenodd" d="M545.376 539.659C544.193 539.659 543.13 542.901 543.011 546.878C542.88 550.855 543.734 554.083 544.916 554.07C546.098 554.07 547.162 550.828 547.28 546.851C547.398 542.875 546.558 539.646 545.376 539.659Z" fill="#467B49"/>
<path fill-rule="evenodd" clip-rule="evenodd" d="M560.704 544.2C559.771 543.544 556.697 545.486 553.847 548.531C550.984 551.576 549.421 554.582 550.353 555.238C551.286 555.895 554.36 553.952 557.21 550.907C560.073 547.862 561.623 544.856 560.704 544.2Z" fill="#467B49"/>
<path fill-rule="evenodd" clip-rule="evenodd" d="M880.742 569.269C881.674 568.613 884.748 570.555 887.598 573.6C890.461 576.645 892.024 579.651 891.092 580.307C890.159 580.963 887.086 579.021 884.236 575.976C881.372 572.931 879.822 569.925 880.742 569.269Z" fill="#467B49"/>
<path fill-rule="evenodd" clip-rule="evenodd" d="M895.571 564.741C894.389 564.741 893.325 567.983 893.206 571.959C893.075 575.936 893.929 579.165 895.111 579.152C896.293 579.152 897.357 575.91 897.475 571.933C897.607 567.956 896.753 564.728 895.571 564.741Z" fill="#467B49"/>
<path fill-rule="evenodd" clip-rule="evenodd" d="M910.912 569.269C909.979 568.613 906.906 570.555 904.056 573.6C901.192 576.645 899.629 579.651 900.562 580.307C901.495 580.963 904.568 579.021 907.418 575.976C910.282 572.931 911.831 569.925 910.912 569.269Z" fill="#467B49"/>
<path fill-rule="evenodd" clip-rule="evenodd" d="M173.508 460.988C174.441 460.332 177.514 462.274 180.365 465.319C183.228 468.364 184.791 471.37 183.858 472.026C182.926 472.682 179.852 470.74 177.002 467.695C174.139 464.65 172.589 461.644 173.508 460.988Z" fill="#467B49"/>
<path fill-rule="evenodd" clip-rule="evenodd" d="M188.337 456.46C187.155 456.46 186.091 459.702 185.973 463.678C185.842 467.655 186.695 470.884 187.878 470.871C189.06 470.871 190.124 467.629 190.242 463.652C190.373 459.675 189.519 456.447 188.337 456.46Z" fill="#467B49"/>
<path fill-rule="evenodd" clip-rule="evenodd" d="M203.665 460.988C202.733 460.332 199.659 462.274 196.809 465.319C193.946 468.364 192.383 471.37 193.315 472.026C194.248 472.682 197.321 470.74 200.172 467.695C203.035 464.65 204.585 461.644 203.665 460.988Z" fill="#467B49"/>
<path fill-rule="evenodd" clip-rule="evenodd" d="M38.8917 484.928C39.8243 484.272 42.8978 486.214 45.748 489.259C48.6113 492.304 50.1743 495.31 49.2418 495.966C48.3092 496.622 45.2357 494.68 42.3855 491.635C39.5222 488.59 37.9723 485.584 38.8917 484.928Z" fill="#467B49"/>
<path fill-rule="evenodd" clip-rule="evenodd" d="M53.7338 480.387C52.5517 480.387 51.4877 483.628 51.3695 487.605C51.2382 491.582 52.0919 494.811 53.2741 494.798C54.4562 494.798 55.5201 491.556 55.6383 487.579C55.7696 483.602 54.9159 480.373 53.7338 480.387Z" fill="#467B49"/>
<path fill-rule="evenodd" clip-rule="evenodd" d="M69.0619 484.915C68.1294 484.258 65.0559 486.201 62.2057 489.246C59.3423 492.291 57.7793 495.296 58.7119 495.953C59.6444 496.609 62.7179 494.666 65.5681 491.621C68.4315 488.576 69.9814 485.571 69.0619 484.915Z" fill="#467B49"/>
<path fill-rule="evenodd" clip-rule="evenodd" d="M541.829 602.724C336.089 530.983 234.23 457.155 0.499268 539.462V602.724H541.829Z" fill="#3CA642"/>
<path fill-rule="evenodd" clip-rule="evenodd" d="M1110.1 554.674C1110.1 554.674 1089.23 560.515 1088.87 555.18C1088.5 549.837 1093.56 547.56 1093.56 547.56C1082.15 544.094 1087.33 520.771 1105.52 537.916C1094.38 521.465 1116.24 502.933 1122.89 537.039C1132 507.657 1146.37 520.559 1141.64 531.366C1158.6 518.61 1164.52 535.779 1153.44 538.699C1179.13 529.297 1177.99 544.454 1171.27 545.482C1171.27 545.482 1187.6 540.28 1188.62 545.042C1189.3 548.208 1176 549.778 1167.02 550.472C1168.71 551.078 1169.87 552.014 1169.54 553.461C1168.59 557.585 1114.76 554.311 1110.1 554.666L1110.1 554.674Z" fill="#17591B"/>
<path fill-rule="evenodd" clip-rule="evenodd" d="M116.465 549.896C117.397 549.24 120.471 551.183 123.321 554.227C126.184 557.272 127.747 560.278 126.815 560.934C125.882 561.591 122.809 559.648 119.959 556.603C117.095 553.558 115.545 550.553 116.465 549.896Z" fill="#467B49"/>
<path fill-rule="evenodd" clip-rule="evenodd" d="M131.307 545.368C130.125 545.368 129.061 548.61 128.943 552.587C128.811 556.564 129.665 559.793 130.847 559.779C132.029 559.779 133.093 556.538 133.211 552.561C133.343 548.584 132.476 545.355 131.307 545.368Z" fill="#467B49"/>
<path fill-rule="evenodd" clip-rule="evenodd" d="M146.635 549.896C145.702 549.24 142.629 551.183 139.779 554.227C136.915 557.272 135.352 560.278 136.285 560.934C137.217 561.591 140.291 559.648 143.141 556.603C146.004 553.558 147.554 550.553 146.635 549.896Z" fill="#467B49"/>
<path fill-rule="evenodd" clip-rule="evenodd" d="M320.656 566.998C321.588 566.342 324.662 568.284 327.512 571.329C330.375 574.374 331.938 577.38 331.006 578.036C330.073 578.692 327 576.75 324.149 573.705C321.286 570.66 319.736 567.654 320.656 566.998Z" fill="#467B49"/>
<path fill-rule="evenodd" clip-rule="evenodd" d="M335.485 562.457C334.302 562.457 333.238 565.699 333.12 569.676C332.989 573.652 333.843 576.881 335.025 576.868C336.207 576.868 337.271 573.626 337.389 569.649C337.52 565.672 336.667 562.444 335.485 562.457Z" fill="#467B49"/>
<path fill-rule="evenodd" clip-rule="evenodd" d="M350.826 566.985C349.893 566.329 346.82 568.271 343.97 571.316C341.106 574.361 339.543 577.367 340.476 578.023C341.408 578.679 344.482 576.737 347.332 573.692C350.195 570.647 351.745 567.641 350.826 566.985Z" fill="#467B49"/>
<path fill-rule="evenodd" clip-rule="evenodd" d="M704.479 557.115C682.111 557.115 663.854 538.885 663.854 516.52C663.854 494.168 682.098 475.924 704.479 475.924C726.86 475.924 745.104 494.155 745.104 516.52C745.104 538.871 726.86 557.115 704.479 557.115Z" fill="#4D1400"/>
<path fill-rule="evenodd" clip-rule="evenodd" d="M704.479 534.868C694.365 534.868 686.104 526.626 686.104 516.507C686.104 506.4 694.352 498.145 704.479 498.145C714.606 498.145 722.854 506.387 722.854 516.507C722.854 526.613 714.606 534.868 704.479 534.868Z" fill="#4D1400"/>
<path fill-rule="evenodd" clip-rule="evenodd" d="M890.032 557.115C867.663 557.115 849.406 538.885 849.406 516.52C849.406 494.168 867.65 475.924 890.032 475.924C912.4 475.924 930.657 494.155 930.657 516.52C930.657 538.871 912.413 557.115 890.032 557.115Z" fill="#4D1400"/>
<path fill-rule="evenodd" clip-rule="evenodd" d="M890.032 534.868C879.918 534.868 871.656 526.626 871.656 516.507C871.656 506.4 879.905 498.145 890.032 498.145C900.158 498.145 908.407 506.387 908.407 516.507C908.407 526.613 900.158 534.868 890.032 534.868Z" fill="#4D1400"/>
<path fill-rule="evenodd" clip-rule="evenodd" d="M629.572 334.122H931.143L877.449 396.177L574.972 384.929L629.572 334.122Z" fill="#612200"/>
<path fill-rule="evenodd" clip-rule="evenodd" d="M896.153 374.56L877.449 396.177L621.547 386.661L634.55 374.56H896.153Z" fill="#4D1400"/>
<path fill-rule="evenodd" clip-rule="evenodd" d="M858.141 240.79C859.953 246.421 858.285 252.97 855.185 259.152C849.8 269.888 840.921 275.388 831.832 283.079L790.235 271.503L778.742 309.591C791.903 312.426 836.758 328.583 847.029 320.866C857.825 312.768 870.251 287.082 875.386 275.703C877.619 270.978 879.484 266.515 880.378 262.578C887.759 254.808 896.376 243.849 894.3 241.591C869.909 215.052 853.701 227.035 858.141 240.804V240.79Z" fill="#E6B59F"/>
<path fill-rule="evenodd" clip-rule="evenodd" d="M885.907 256.396C891.371 249.912 895.85 243.284 894.287 241.591C877.737 223.57 864.944 223.308 859.835 229.306C860.951 239.793 863.67 244.649 873.994 251.448C878.46 254.388 882.44 256.042 885.907 256.409V256.396Z" fill="#CF7866"/>
<path fill-rule="evenodd" clip-rule="evenodd" d="M750.621 261.331C765.515 258.457 793.322 266.843 825.974 278.564C828.838 302.36 817.581 321.876 808.925 327.454C789.617 326.076 769.692 314.211 757.031 306.783C744.014 299.157 716.734 267.88 750.634 261.318L750.621 261.331Z" fill="#2B5C8A"/>
<path fill-rule="evenodd" clip-rule="evenodd" d="M754.535 344.517C754.259 344.583 754.102 344.858 754.167 345.134C754.233 345.41 754.509 345.567 754.785 345.501C754.824 345.501 769.377 341.853 781.999 330.985C782.21 330.801 782.236 330.486 782.052 330.276C781.868 330.066 781.553 330.04 781.343 330.224C768.904 340.934 754.588 344.517 754.548 344.53L754.535 344.517Z" fill="#2B5C8A"/>
<path fill-rule="evenodd" clip-rule="evenodd" d="M658.547 391.596C652.61 373.116 661.384 284.733 714.987 253.43C736.488 240.869 755.52 256.645 765.542 266.003C796.539 294.944 777.166 370.675 780.568 388.157L658.547 391.596Z" fill="#033352"/>
<path fill-rule="evenodd" clip-rule="evenodd" d="M883.346 311.376C880.378 311.376 876.385 315.865 872.339 323.11C867.598 331.602 863.434 343.401 860.965 356.526C859.52 364.204 858.837 371.489 858.837 377.946C858.837 384.929 859.638 390.756 861.122 394.864C862.16 397.739 863.316 399.471 864.472 399.694C864.498 399.694 864.577 399.694 864.708 399.694C867.677 399.694 871.67 395.206 875.715 387.961C880.457 379.469 884.62 367.656 887.09 354.544C888.534 346.866 889.217 339.582 889.217 333.124C889.217 326.142 888.416 320.315 886.932 316.206C885.894 313.332 884.738 311.6 883.583 311.376C883.556 311.376 883.478 311.376 883.346 311.376ZM897.046 312.558C898.976 317.873 900.001 324.961 900.001 333.138C900.001 340.133 899.252 348.087 897.663 356.526C894.983 370.78 890.386 383.734 885.106 393.184C879.143 403.868 871.867 410.47 864.708 410.47C863.999 410.47 863.263 410.391 862.488 410.247C857.261 409.262 853.386 405.062 851.009 398.513C849.078 393.197 848.053 386.11 848.053 377.933C848.053 370.938 848.802 362.984 850.391 354.544C853.071 340.291 857.668 327.336 862.948 317.886C868.911 307.203 876.188 300.601 883.346 300.601C884.055 300.601 884.791 300.68 885.566 300.824C890.794 301.808 894.668 306.008 897.046 312.558Z" fill="#290000"/>
<path fill-rule="evenodd" clip-rule="evenodd" d="M843.798 321.443C843.102 321.378 847.515 313.385 857.037 309.762C859.454 308.83 883.083 316.889 879.839 325.237C879.156 326.995 876.175 326.523 876.398 326.772C878.145 328.649 876.595 332.823 874.323 333.23C872.26 333.584 869.515 330.237 869.791 330.473C876.148 335.815 867.611 348.271 865.247 337.508C864.642 334.791 859.625 335.973 858.679 336.38C855.987 337.521 854.03 342.207 852.453 342.456L843.811 321.457L843.798 321.443Z" fill="#E6B59F"/>
<path fill-rule="evenodd" clip-rule="evenodd" d="M761.431 379.088C785.02 379.39 839.437 346.355 839.437 346.355C839.437 346.355 851.219 346.394 853.307 341.682C855.409 336.97 850.089 313.555 850.089 313.555L838.058 322.073L764.688 335.356L727.294 304.184L698.424 336.59C710.14 345.436 748.69 378.918 761.417 379.075L761.431 379.088Z" fill="#E6B59F"/>
<path fill-rule="evenodd" clip-rule="evenodd" d="M863.447 325.893C863.119 325.814 862.791 326.011 862.725 326.339C862.646 326.667 862.843 326.995 863.171 327.074C863.185 327.074 867.808 328.124 869.923 332.403C870.067 332.705 870.435 332.823 870.737 332.678C871.039 332.534 871.157 332.167 871.013 331.865C868.635 327.061 863.474 325.893 863.447 325.893Z" fill="#CF7866"/>
<path fill-rule="evenodd" clip-rule="evenodd" d="M868.36 320.302C868.031 320.223 867.703 320.42 867.637 320.748C867.558 321.076 867.755 321.404 868.084 321.47C868.097 321.47 872.72 322.52 874.835 326.798C874.979 327.1 875.347 327.218 875.649 327.074C875.951 326.93 876.07 326.562 875.925 326.26C873.548 321.457 868.386 320.302 868.36 320.288V320.302Z" fill="#CF7866"/>
<path fill-rule="evenodd" clip-rule="evenodd" d="M816.517 24.6748C841.026 55.571 839.24 110.04 816.044 128.415C792.849 146.789 739.982 136.224 717.6 108.018C689.453 72.5547 700.841 34.8204 725.902 14.3061C751.015 -6.24758 792.008 -6.22133 816.517 24.6748Z" fill="#B81916"/>
<path fill-rule="evenodd" clip-rule="evenodd" d="M816.517 24.6749C830.02 41.6848 835.536 65.8479 833.894 87.2022C831.924 89.8928 829.704 92.2422 827.248 94.1978C804.052 112.573 751.186 102.007 728.804 73.8016C716.904 58.7998 712.071 43.3911 712.347 29.0586C716.129 23.5199 720.713 18.5587 725.902 14.3193C751.015 -6.23439 792.008 -6.20815 816.517 24.688V24.6749Z" fill="#C42B23"/>
<path fill-rule="evenodd" clip-rule="evenodd" d="M813.89 126.144C817.791 123.545 825.514 127.706 828.01 132.378C830.506 137.038 821.732 133.888 819.735 135.594C816.504 138.363 817.24 145.543 812.432 140.66C810.62 138.823 810.948 128.1 813.89 126.144Z" fill="#B81916"/>
<path fill-rule="evenodd" clip-rule="evenodd" d="M815.808 127.47C815.808 127.102 815.506 126.8 815.138 126.8C814.77 126.8 814.468 127.102 814.468 127.47C814.468 159.888 828.286 168.196 841.302 176.019C851.166 181.951 860.544 187.595 862.725 203.726C866.639 232.811 878.289 239.898 896.047 250.7C901.433 253.968 907.383 257.591 913.845 262.289C941.191 282.147 941.204 304.066 941.204 304.132C941.204 304.499 941.519 304.801 941.887 304.788C942.255 304.788 942.557 304.486 942.544 304.105C942.544 304.04 942.518 281.439 914.633 261.187C908.131 256.462 902.155 252.826 896.743 249.532C879.327 238.94 867.874 231.971 864.051 203.529C861.792 186.755 852.138 180.954 841.998 174.851C829.31 167.225 815.821 159.114 815.821 127.443L815.808 127.47Z" fill="#32082F"/>
<path fill-rule="evenodd" clip-rule="evenodd" d="M810.515 132.142C810.515 132.51 810.817 132.811 811.184 132.811C811.552 132.811 811.854 132.51 811.854 132.142C811.854 131.814 812.997 129.57 815.322 127.719C816.635 126.669 818.317 125.776 820.366 125.514C820.733 125.461 820.996 125.133 820.944 124.766C820.891 124.398 820.563 124.136 820.195 124.188C817.857 124.49 815.952 125.488 814.468 126.682C811.815 128.808 810.501 131.696 810.501 132.155L810.515 132.142Z" fill="#32082F"/>
<path fill-rule="evenodd" clip-rule="evenodd" d="M801.99 31.8804C798.116 28.061 794.504 25.3179 789.867 22.4698C784.259 19.2542 754.417 10.8936 754.377 10.8673C758.186 2.76921 787.411 10.7886 794.451 13.9648C800.27 16.931 804.736 19.9235 809.411 24.491C809.687 24.7666 809.963 25.0554 810.239 25.3441C813.365 29.0454 822.861 39.6503 814.468 41.3566C808.479 43.5878 808.794 39.4272 802.647 32.5629C802.608 32.4841 802.082 31.9854 801.99 31.8935V31.8804Z" fill="white"/>
<path fill-rule="evenodd" clip-rule="evenodd" d="M858.732 252.091C856.302 248.219 854.712 242.904 856.275 233.532C856.853 230.067 855.212 224.489 856.092 219.961C856.367 218.504 859.94 220.906 861.91 224.122C864.366 228.164 864.971 231.97 865.299 234.057C880.772 243.258 869.778 269.665 858.732 252.078V252.091Z" fill="#E6B59F"/>
<path fill-rule="evenodd" clip-rule="evenodd" d="M867.768 218.688C865.759 222.192 863.946 235.632 868.031 235.869C872.116 236.105 876.923 227.167 876.45 219.961C875.715 214.895 869.83 215.079 867.768 218.688Z" fill="#E6B59F"/>
<path fill-rule="evenodd" clip-rule="evenodd" d="M875.859 222.324C873.285 225.434 869.174 238.362 873.154 239.294C877.146 240.226 883.412 232.246 884.187 225.067C884.331 219.961 878.512 219.121 875.859 222.324Z" fill="#E6B59F"/>
<path fill-rule="evenodd" clip-rule="evenodd" d="M884.003 228.282C880.759 230.684 873.666 242.26 877.317 244.111C880.969 245.975 888.968 239.727 891.437 232.942C892.803 228.007 887.352 225.815 884.003 228.282Z" fill="#E6B59F"/>
<path fill-rule="evenodd" clip-rule="evenodd" d="M890.242 235.501C886.997 236.669 878.368 244.426 880.903 246.828C883.438 249.243 891.503 246.067 895.18 241.119C897.492 237.417 893.578 234.281 890.242 235.488V235.501Z" fill="#E6B59F"/>
<path fill-rule="evenodd" clip-rule="evenodd" d="M871.144 233.795C871.105 234.097 871.315 234.372 871.617 234.412C871.919 234.451 872.195 234.241 872.234 233.939C872.234 233.913 873.337 226.077 876.766 221.838C876.963 221.602 876.923 221.261 876.687 221.064C876.45 220.88 876.109 220.906 875.912 221.142C872.3 225.618 871.157 233.756 871.157 233.769L871.144 233.795Z" fill="#CF7866"/>
<path fill-rule="evenodd" clip-rule="evenodd" d="M876.897 237.654C876.779 237.929 876.897 238.257 877.173 238.376C877.449 238.494 877.777 238.376 877.895 238.1C877.895 238.087 880.496 232.272 884.055 228.807C884.265 228.597 884.279 228.243 884.055 228.033C883.845 227.81 883.491 227.81 883.28 228.033C879.563 231.656 876.884 237.654 876.884 237.667L876.897 237.654Z" fill="#CF7866"/>
<path fill-rule="evenodd" clip-rule="evenodd" d="M880.627 243.429C880.456 243.678 880.509 244.019 880.745 244.203C880.995 244.374 881.336 244.321 881.52 244.085C881.52 244.072 885.395 238.704 890.386 236.026C890.649 235.882 890.754 235.554 890.609 235.278C890.465 235.015 890.137 234.91 889.861 235.055C884.646 237.864 880.64 243.429 880.627 243.442V243.429Z" fill="#CF7866"/>
<path fill-rule="evenodd" clip-rule="evenodd" d="M716.142 275.112C723.905 288.145 734.084 304.486 759.723 329.568C746.864 350.161 727.977 364.388 717.561 364.847C702.443 354.033 685.644 323.766 681.914 310.051C677.737 294.655 686.471 281.386 698.306 277.068C703.008 275.348 714.238 271.91 716.129 275.112H716.142Z" fill="#2B5C8A"/>
<path fill-rule="evenodd" clip-rule="evenodd" d="M744.408 357.156C748.979 351.329 756.321 340.645 759.106 334.122C759.487 333.229 759.815 332.363 760.078 331.536L759.014 330.657C758.252 331.838 757.477 332.993 756.689 334.135C748.23 346.236 737.88 355.699 729.08 360.766C736.199 366.108 743.384 371.134 749.465 374.573C754.364 377.329 758.541 379.062 761.417 379.101C766.54 379.167 773.12 377.657 780.266 375.269C780.936 375.046 781.605 374.809 782.288 374.573C797.564 369.192 815.046 360.136 826.605 353.744C815.663 356.946 798.694 363.063 781.513 370.294C775.669 372.749 763.545 372.841 755.678 367.184C752.749 365.084 741.61 360.739 744.408 357.169V357.156Z" fill="#CF7866"/>
<path fill-rule="evenodd" clip-rule="evenodd" d="M862.37 223.833C862.212 223.57 861.871 223.492 861.608 223.649C861.346 223.807 861.267 224.148 861.424 224.41C862.633 226.379 863.381 228.295 863.867 229.975C864.353 231.669 864.59 233.112 864.747 234.149C864.774 234.32 864.879 234.451 865.01 234.543C868.176 236.42 870.185 239.045 871.302 241.84C872.628 245.2 872.681 248.823 871.84 251.75C871.761 252.038 871.932 252.353 872.221 252.432C872.51 252.511 872.812 252.34 872.904 252.052C873.797 248.915 873.758 245.043 872.326 241.447C871.157 238.494 869.056 235.737 865.798 233.742C865.627 232.705 865.391 231.301 864.931 229.687C864.419 227.928 863.631 225.92 862.37 223.846V223.833Z" fill="#CF7866"/>
<path fill-rule="evenodd" clip-rule="evenodd" d="M834.341 322.165C834.052 322.401 834.012 322.821 834.249 323.11C834.485 323.399 834.906 323.438 835.194 323.202C836.902 321.811 838.491 320.393 840.028 319.015C846.031 313.634 851.284 308.922 858.916 310.589C859.283 310.668 859.638 310.431 859.717 310.077C859.796 309.71 859.559 309.355 859.205 309.276C850.904 307.465 845.4 312.4 839.135 318.018C837.598 319.396 836.009 320.813 834.354 322.165H834.341Z" fill="#CF7866"/>
<path fill-rule="evenodd" clip-rule="evenodd" d="M833.448 282.935C833.658 282.633 833.592 282.213 833.29 282.003C832.988 281.793 832.568 281.859 832.357 282.16C830.9 284.208 830.059 286.662 829.691 289.025C829.231 291.938 829.468 294.747 830.098 296.467C830.23 296.821 830.611 296.992 830.965 296.86C831.32 296.729 831.491 296.348 831.359 295.994C830.794 294.458 830.584 291.899 831.018 289.222C831.359 287.043 832.134 284.785 833.461 282.922L833.448 282.935Z" fill="#CF7866"/>
<path fill-rule="evenodd" clip-rule="evenodd" d="M785.664 167.606C785.664 167.606 790.09 175.441 795.935 188.146C801.544 200.326 808.623 217.113 807.52 230.067C806.469 242.484 797.669 252.8 781.421 256.33C730.538 267.395 757.832 178.565 757.832 178.565L785.651 167.593L785.664 167.606Z" fill="#D06C19"/>
<path fill-rule="evenodd" clip-rule="evenodd" d="M781.553 260.229C769.994 277.672 782.669 295.075 801.031 294.577C779.858 277.737 814.402 266.358 806.64 233.375C800.664 207.965 793.243 211.141 793.243 211.141C795.738 229.818 793.321 242.47 781.553 260.229Z" fill="#6C3203"/>
<path fill-rule="evenodd" clip-rule="evenodd" d="M749.228 284.838L749.005 267.329C734.426 246.762 753.169 190.141 753.169 190.141L789.092 182.083C806.587 222.914 805.55 262.893 778.729 280.717C771.255 285.678 762.81 286.767 749.228 284.838Z" fill="#6C3203"/>
<path fill-rule="evenodd" clip-rule="evenodd" d="M722.605 256.882L755.796 258.194L755.546 267.46L756.715 274.692L755.008 288.263L721.816 286.951L722.605 256.882Z" fill="#E6B59F"/>
<path fill-rule="evenodd" clip-rule="evenodd" d="M722.605 256.882L737.25 257.459L755.664 263.326L755.559 267.382L756.452 271.752C743.475 277.711 727.005 274.246 722.184 272.881L722.605 256.869V256.882Z" fill="#CF7866"/>
<path fill-rule="evenodd" clip-rule="evenodd" d="M748.48 267.933C807.218 262.276 790.708 216.142 781.461 169.286L692.592 180.009C691.226 224.725 678.591 274.666 748.48 267.933Z" fill="#E6B59F"/>
<path fill-rule="evenodd" clip-rule="evenodd" d="M789.368 209.173C788.488 203.332 787.306 197.255 786.019 191.06C779.78 183.566 772.477 175.533 767.039 171.018L713.857 177.436C697.15 190.601 691.463 204.828 696.27 211.43C716.668 207.388 721.331 205.681 733.165 198.673C744.999 191.677 749.504 179.851 749.504 179.851C749.504 179.851 751.527 188.094 764.294 193.226C777.061 198.358 781.881 198.83 787.949 207.388C788.422 208.044 788.895 208.648 789.368 209.173Z" fill="#CF7866"/>
<path fill-rule="evenodd" clip-rule="evenodd" d="M696.296 220.184C696.296 220.184 686.117 211.535 674.611 216.746C665.679 220.788 671.55 240.305 680.508 246.198C688.074 251.172 700.368 241.736 699.895 238.651L696.296 220.184Z" fill="#E6B59F"/>
<path fill-rule="evenodd" clip-rule="evenodd" d="M675.872 223.899C675.491 223.872 675.162 224.161 675.136 224.542C675.11 224.922 675.399 225.251 675.78 225.277C676.003 225.29 676.318 225.224 676.752 225.146C679.313 224.634 687.089 223.098 691.095 234.596C691.213 234.95 691.607 235.147 691.962 235.016C692.316 234.897 692.513 234.504 692.382 234.149C687.982 221.523 679.339 223.242 676.489 223.807C676.161 223.872 675.911 223.925 675.872 223.912V223.899Z" fill="#CF7866"/>
<path fill-rule="evenodd" clip-rule="evenodd" d="M676.581 232.771C676.542 233.152 676.831 233.48 677.198 233.519C677.579 233.559 677.908 233.27 677.947 232.902C677.947 232.889 678.538 226.038 685.854 226.576C686.235 226.602 686.563 226.327 686.59 225.946C686.616 225.565 686.34 225.237 685.959 225.211C677.29 224.568 676.594 232.745 676.594 232.771H676.581Z" fill="#CF7866"/>
<path fill-rule="evenodd" clip-rule="evenodd" d="M749.268 165.532C749.268 165.532 751.343 185.101 736.829 194.092L740.744 183.041C740.744 183.041 731.063 203.306 695.574 209.067C694.641 181.479 724.798 162.828 749.268 165.545V165.532Z" fill="#6C3203"/>
<path fill-rule="evenodd" clip-rule="evenodd" d="M746.497 168.065C746.497 168.065 752.263 186.256 768.852 191.323C785.441 196.389 789.026 211.102 789.368 208.136C789.696 205.169 795.41 180.166 783.142 173.591C770.874 167.015 749.268 165.755 749.268 165.755L746.497 168.052V168.065Z" fill="#6C3203"/>
<path fill-rule="evenodd" clip-rule="evenodd" d="M745.13 231.564C749.386 232.39 753.668 231.944 757.989 230.067C757.989 230.133 758.002 230.186 758.015 230.251C758.396 233.545 756.032 236.538 752.722 236.932L751.829 237.037C748.532 237.417 745.538 235.055 745.144 231.747C745.144 231.682 745.144 231.629 745.13 231.564Z" fill="#CF7866"/>
<path fill-rule="evenodd" clip-rule="evenodd" d="M776.312 226.904C772.07 227.377 768.838 229.569 769.088 231.813C769.338 234.057 772.976 235.488 777.218 235.029C781.461 234.556 784.692 232.364 784.442 230.12C784.193 227.876 780.555 226.445 776.312 226.904Z" fill="#CF7866"/>
<path fill-rule="evenodd" clip-rule="evenodd" d="M722.434 232.364C718.178 232.627 714.842 234.661 714.973 236.906C715.105 239.15 718.677 240.778 722.933 240.515C727.188 240.253 730.525 238.218 730.393 235.974C730.262 233.716 726.689 232.102 722.434 232.364Z" fill="#CF7866"/>
<path fill-rule="evenodd" clip-rule="evenodd" d="M734.281 242.208C727.596 246.434 734.019 258.168 749.78 257.039C759.185 256.37 769.508 251.448 768.037 245.187C766.487 238.625 760.511 240.777 754.115 242.838C745.459 245.634 740.652 238.192 734.281 242.208Z" fill="white"/>
<path fill-rule="evenodd" clip-rule="evenodd" d="M732.797 245.384C732.469 245.214 732.061 245.345 731.891 245.673C731.72 246.001 731.851 246.408 732.18 246.579C732.232 246.605 749.911 255.792 767.551 245.765C767.879 245.581 767.985 245.174 767.801 244.846C767.617 244.518 767.21 244.413 766.881 244.597C749.872 254.27 732.836 245.411 732.784 245.384H732.797Z" fill="#EBEBEB"/>
<path fill-rule="evenodd" clip-rule="evenodd" d="M760.945 197.898C760.498 198.358 760.511 199.198 760.984 199.788C761.457 200.379 762.192 200.497 762.652 200.038C762.665 200.024 767.972 194.486 772.595 200.51C773.055 201.114 773.803 201.245 774.263 200.799C774.723 200.353 774.723 199.513 774.263 198.909C767.906 190.614 760.984 197.872 760.958 197.885L760.945 197.898Z" fill="#290000"/>
<path fill-rule="evenodd" clip-rule="evenodd" d="M729.421 218.583C728.896 214.593 726.65 210.879 722.657 211.404C718.651 211.929 714.409 216.496 714.934 220.486L715.078 221.562C715.604 225.552 719.268 228.374 723.274 227.849C727.267 227.324 730.091 223.662 729.566 219.659L729.421 218.583Z" fill="white"/>
<path fill-rule="evenodd" clip-rule="evenodd" d="M714.842 224.082C714.934 224.476 715.315 224.726 715.722 224.647C716.116 224.555 716.366 224.174 716.287 223.767C715.63 220.749 716.155 217.901 717.43 215.735C718.204 214.409 719.268 213.346 720.503 212.664C721.711 211.994 723.104 211.692 724.575 211.863C726.598 212.112 728.765 213.281 730.853 215.669C731.116 215.971 731.589 216.011 731.891 215.735C732.193 215.472 732.232 215 731.956 214.698C729.618 212.007 727.11 210.682 724.746 210.393C722.959 210.17 721.265 210.551 719.781 211.364C718.323 212.178 717.062 213.425 716.155 214.961C714.698 217.415 714.093 220.644 714.842 224.043V224.082Z" fill="#290000"/>
<path fill-rule="evenodd" clip-rule="evenodd" d="M775.682 215.735C775.182 211.916 772.49 207.532 768.668 208.031C764.149 208.28 761.325 213.727 761.825 217.546L761.956 218.583C762.455 222.402 765.975 225.106 769.797 224.594C773.619 224.096 776.325 220.591 775.826 216.759L775.695 215.722L775.682 215.735Z" fill="white"/>
<path fill-rule="evenodd" clip-rule="evenodd" d="M777.691 214.764C777.074 210.931 773.935 208.254 770.69 208.766C767.446 209.277 765.318 212.808 765.936 216.627L766.106 217.664C766.724 221.484 769.863 224.174 773.107 223.662C776.351 223.151 778.479 219.62 777.862 215.801L777.691 214.764Z" fill="#290000"/>
<path fill-rule="evenodd" clip-rule="evenodd" d="M761.733 221.09C761.864 221.471 762.284 221.667 762.665 221.536C763.046 221.405 763.256 220.985 763.112 220.604C761.706 216.614 762.678 213.189 764.648 211.049C765.397 210.236 766.29 209.619 767.262 209.212C768.221 208.818 769.246 208.647 770.257 208.739C772.582 208.949 774.893 210.577 776.325 214.094C776.483 214.475 776.903 214.646 777.284 214.501C777.665 214.344 777.836 213.924 777.691 213.543C776.023 209.435 773.238 207.545 770.401 207.282C769.14 207.164 767.893 207.374 766.724 207.86C765.568 208.332 764.491 209.081 763.598 210.052C761.286 212.546 760.143 216.522 761.746 221.09H761.733Z" fill="#290000"/>
<path fill-rule="evenodd" clip-rule="evenodd" d="M779.53 211.496C779.372 210.301 778.269 209.448 777.074 209.606C775.878 209.763 775.025 210.866 775.182 212.06L775.222 212.388C775.379 213.583 776.483 214.436 777.678 214.278C778.873 214.121 779.727 213.018 779.569 211.824L779.53 211.496Z" fill="white"/>
<path fill-rule="evenodd" clip-rule="evenodd" d="M732.469 217.966C732.101 213.976 729.014 211.167 725.573 211.705C722.132 212.244 719.649 215.919 720.017 219.909L720.122 220.985C720.49 224.975 723.577 227.784 727.018 227.232C730.446 226.694 732.942 223.019 732.574 219.029L732.469 217.953V217.966Z" fill="#290000"/>
<path fill-rule="evenodd" clip-rule="evenodd" d="M733.454 214.16C733.296 212.913 732.14 212.02 730.879 212.191C729.618 212.349 728.738 213.504 728.909 214.764L728.948 215.105C729.106 216.352 730.262 217.244 731.523 217.074C732.771 216.903 733.664 215.761 733.493 214.501L733.454 214.16Z" fill="white"/>
<path fill-rule="evenodd" clip-rule="evenodd" d="M713.003 204.251C712.557 204.881 712.701 205.747 713.332 206.193C713.962 206.639 714.829 206.495 715.275 205.865C715.289 205.839 720.582 198.292 726.335 203.923C726.886 204.461 727.766 204.461 728.305 203.909C728.843 203.358 728.843 202.479 728.292 201.941C720.175 194.013 713.016 204.224 713.003 204.251Z" fill="#290000"/>
<path fill-rule="evenodd" clip-rule="evenodd" d="M721.423 272.172C726.978 274.797 750.608 282.239 753.681 279.247C755.756 277.225 755.783 270.597 755.848 267.736C758.344 268.353 761.943 267.907 763.887 269.14C780.568 279.732 776.286 312.243 770.677 327.376C769.246 331.235 717.272 292.529 715.236 281.832C716.51 280.244 719.768 275.506 720.608 273.865C720.897 273.301 721.16 272.75 721.409 272.185L721.423 272.172Z" fill="#B81916"/>
<path fill-rule="evenodd" clip-rule="evenodd" d="M720.07 275.322C719.925 275.086 719.61 275.02 719.373 275.165C719.137 275.309 719.071 275.624 719.216 275.86C720.713 278.223 723.918 282.593 729.513 287.056C735.096 291.505 743.068 296.047 754.062 298.737C754.338 298.803 754.6 298.632 754.666 298.37C754.732 298.094 754.561 297.832 754.298 297.766C743.462 295.115 735.621 290.652 730.131 286.282C724.654 281.911 721.514 277.632 720.056 275.335L720.07 275.322Z" fill="#931810"/>
<path fill-rule="evenodd" clip-rule="evenodd" d="M756.203 267.71C755.94 267.605 755.651 267.736 755.546 267.985C755.441 268.235 755.573 268.537 755.822 268.642C755.875 268.668 773.935 275.519 769.653 309.565C769.613 309.841 769.81 310.09 770.086 310.13C770.362 310.169 770.612 309.972 770.651 309.683C775.025 274.863 756.242 267.723 756.19 267.697L756.203 267.71Z" fill="#931810"/>
<path fill-rule="evenodd" clip-rule="evenodd" d="M745.144 297.766C744.894 297.648 744.592 297.766 744.474 298.015C744.356 298.265 744.474 298.566 744.723 298.685C744.802 298.724 770.31 310.471 768.747 299.354C768.707 299.078 768.458 298.881 768.182 298.921C767.906 298.96 767.709 299.21 767.748 299.485C769.062 308.765 745.223 297.792 745.144 297.766Z" fill="#931810"/>
<path fill-rule="evenodd" clip-rule="evenodd" d="M727.149 274.272C728.686 274.797 730.367 275.362 732.114 275.9C732.153 277.278 731.09 278.498 729.632 278.682C728.082 278.879 726.676 277.842 726.492 276.359C726.387 275.572 726.65 274.823 727.149 274.272Z" fill="white"/>
<path fill-rule="evenodd" clip-rule="evenodd" d="M764.701 275.886C766.264 275.886 767.525 277.094 767.525 278.59C767.525 280.086 766.264 281.294 764.701 281.294C763.138 281.294 761.877 280.086 761.877 278.59C761.877 277.094 763.138 275.886 764.701 275.886Z" fill="white"/>
<path fill-rule="evenodd" clip-rule="evenodd" d="M774.986 298.133C775.064 299.918 775.077 301.716 775.025 303.501C774.907 303.514 774.789 303.528 774.657 303.528C773.094 303.528 771.833 302.32 771.833 300.824C771.833 299.328 773.094 298.12 774.657 298.12C774.762 298.12 774.867 298.12 774.986 298.133Z" fill="white"/>
<path fill-rule="evenodd" clip-rule="evenodd" d="M763.979 321.68C763.033 320.577 761.995 319.343 760.853 318.044C761.26 317.033 762.284 316.312 763.493 316.312C765.056 316.312 766.317 317.519 766.317 319.015C766.317 320.354 765.305 321.457 763.979 321.68Z" fill="white"/>
<path fill-rule="evenodd" clip-rule="evenodd" d="M743.554 286.479C745.117 286.479 746.378 287.686 746.378 289.182C746.378 290.678 745.117 291.886 743.554 291.886C741.991 291.886 740.73 290.678 740.73 289.182C740.73 287.686 741.991 286.479 743.554 286.479Z" fill="white"/>
<path fill-rule="evenodd" clip-rule="evenodd" d="M728.883 288.697C730.446 288.697 731.707 289.904 731.707 291.4C731.707 292.897 730.446 294.104 728.883 294.104C727.32 294.104 726.059 292.897 726.059 291.4C726.059 289.904 727.32 288.697 728.883 288.697Z" fill="white"/>
<path fill-rule="evenodd" clip-rule="evenodd" d="M756.282 302.255C757.845 302.255 759.106 303.462 759.106 304.958C759.106 306.455 757.845 307.662 756.282 307.662C754.719 307.662 753.458 306.455 753.458 304.958C753.458 303.462 754.719 302.255 756.282 302.255Z" fill="white"/>
<path fill-rule="evenodd" clip-rule="evenodd" d="M762.534 289.484C764.097 289.484 765.358 290.691 765.358 292.188C765.358 293.684 764.097 294.891 762.534 294.891C760.971 294.891 759.71 293.684 759.71 292.188C759.71 290.691 760.971 289.484 762.534 289.484Z" fill="white"/>
<path fill-rule="evenodd" clip-rule="evenodd" d="M756.347 268.812C757.91 268.812 759.171 270.02 759.171 271.516C759.171 273.012 757.91 274.22 756.347 274.22C756.137 274.22 755.94 274.193 755.756 274.154L755.901 268.838C756.045 268.812 756.203 268.799 756.361 268.799L756.347 268.812Z" fill="white"/>
<path fill-rule="evenodd" clip-rule="evenodd" d="M669.278 243.494C669.672 241.565 670 239.675 670.211 237.837C671.485 226.616 661.87 216.339 661.87 216.339L701.589 202.098C692.369 223.807 736.934 246.329 721.58 277.593C718.625 283.604 712.675 289.379 705.175 293.92C699.961 297.622 694.142 300.758 687.719 302.858C644.217 317.125 609.818 265.846 591.81 291.177C592.257 280.848 605.667 264.717 626.893 266.673C611.512 261.423 599.993 256.606 590.26 274.548C590.773 259.034 608.307 233.546 635.128 245.174C638.569 246.671 641.945 247.563 645.229 247.996C636.245 239.347 630.321 231.577 617.922 240.567C623.044 230.724 642.221 219.686 655.92 235.462C659.795 239.911 664.339 242.418 668.871 243.704C669.015 243.639 669.16 243.56 669.304 243.494H669.278Z" fill="#6C3203"/>
<path fill-rule="evenodd" clip-rule="evenodd" d="M696.467 207.991C700.998 172.751 737.644 159.691 767.262 168.892C774.132 171.031 780.699 174.549 786.058 179.287C788.146 181.138 793.44 188.041 795.962 189.734C797.761 190.942 793.978 179.129 793.768 178.618C789.815 168.564 782.63 156.082 770.336 146.068C747.18 127.194 713.305 127.955 688.809 145.031C682.833 149.191 677.041 154.586 672.194 160.728C645.991 193.934 660.373 277.724 701.799 268.209C731.024 261.502 694.378 224.292 696.48 208.004L696.467 207.991Z" fill="#DC9318"/>
<path fill-rule="evenodd" clip-rule="evenodd" d="M673.284 221.667C679.076 215.315 690.096 218.662 697.912 229.122C705.713 239.583 707.342 253.22 701.55 259.572C695.757 265.925 684.737 262.578 676.922 252.117C669.12 241.644 667.492 228.02 673.284 221.667Z" fill="#D06C19"/>
<path fill-rule="evenodd" clip-rule="evenodd" d="M685.132 147.722C698.673 151.961 709.588 162.303 715.761 175.678L715.945 175.546C716.247 175.336 716.55 175.14 716.865 174.93H716.878L717.062 174.798H717.075V174.772C717.416 174.562 717.732 174.365 718.06 174.168H718.073V174.142H718.113V174.116H718.152V174.09L718.218 174.063H718.231V174.037H718.27V174.011H718.31C718.638 173.801 718.966 173.617 719.295 173.42H719.308V173.394L719.426 173.341H719.439L719.479 173.315H719.492C719.807 173.118 720.135 172.948 720.464 172.764H720.503V172.738L720.661 172.659H720.7V172.633H720.753C721.068 172.449 721.37 172.291 721.685 172.134H721.698L721.987 171.976H722C722.289 171.819 722.591 171.675 722.88 171.543H722.907V171.517H722.933C723.038 171.465 723.143 171.412 723.235 171.373H723.275V171.346H723.288C723.563 171.215 723.852 171.084 724.128 170.953H724.168V170.926C724.286 170.874 724.417 170.821 724.535 170.769H724.575V170.743C724.851 170.625 725.113 170.52 725.389 170.401H725.429V170.375C725.586 170.31 725.731 170.257 725.888 170.191H725.928C726.177 170.073 726.427 169.968 726.689 169.876H726.729C726.9 169.798 727.07 169.732 727.241 169.666H727.294V169.64C727.53 169.561 727.74 169.483 727.964 169.404H728.003C728.213 169.312 728.41 169.246 728.62 169.181C723.8 154.914 714.79 143.666 701.195 138.009C696.874 139.899 692.71 142.209 688.783 144.939C687.548 145.792 686.327 146.711 685.118 147.669L685.132 147.722Z" fill="#B81916"/>
<path fill-rule="evenodd" clip-rule="evenodd" d="M721.396 142.55C727.53 147.84 733.047 155.557 736.37 166.858L736.462 167.173H736.541L736.567 167.146H736.632C737.013 167.068 737.394 166.989 737.775 166.923H737.867L737.893 166.897H737.998L738.025 166.871H738.064C738.432 166.805 738.787 166.753 739.154 166.687H739.233L739.47 166.648H739.522C739.877 166.595 740.231 166.543 740.573 166.503H740.625L740.954 166.451H741.006C741.322 166.411 741.637 166.372 741.965 166.346H742.031C742.162 166.333 742.28 166.319 742.412 166.306H742.504C742.779 166.267 743.068 166.254 743.344 166.228H743.384C743.568 166.214 743.765 166.188 743.948 166.175H743.988C744.237 166.162 744.474 166.136 744.723 166.123H744.763C744.986 166.109 745.222 166.096 745.446 166.083H745.498C745.695 166.083 745.905 166.057 746.103 166.057H746.129C746.405 166.057 746.68 166.044 746.956 166.031H746.983C747.153 166.031 747.324 166.031 747.495 166.031H747.521C747.823 166.031 748.125 166.031 748.414 166.031H748.427C748.585 166.031 748.729 166.031 748.887 166.031H748.913C749.255 166.031 749.596 166.031 749.925 166.044H750.306C750.673 166.07 751.028 166.083 751.396 166.096H751.409C751.343 165.637 751.264 165.191 751.186 164.744C750.384 160.229 749.163 156.226 747.639 152.669C744.159 144.545 735.976 136.88 729.395 132.024C722.447 132.076 715.459 133.166 708.721 135.253C713.095 137.038 717.863 139.492 721.396 142.524V142.55Z" fill="#B81916"/>
<path fill-rule="evenodd" clip-rule="evenodd" d="M744.644 133.651C752.814 142.314 756.61 154.231 755.822 166.464H755.98C756.413 166.529 756.833 166.595 757.267 166.648L757.411 166.674H757.438C757.871 166.739 758.305 166.805 758.725 166.871H758.83C759.276 166.963 759.71 167.041 760.156 167.12H760.262V167.146C760.708 167.225 761.155 167.317 761.601 167.409H761.667C762.114 167.514 762.573 167.619 763.02 167.724H763.086C763.532 167.842 763.992 167.96 764.438 168.078H764.491C764.937 168.209 765.397 168.328 765.844 168.459C766.303 168.59 766.776 168.734 767.236 168.879H767.262C767.42 168.931 767.564 168.984 767.722 169.036H767.761L768.05 169.141C769.968 160.033 769.574 151.121 766.343 143.062C759.684 138.481 752.315 135.371 744.631 133.651H744.644Z" fill="#B81916"/>
<path fill-rule="evenodd" clip-rule="evenodd" d="M710.573 280.454C699.015 297.897 707.342 308.45 721.948 313.857C706.725 301.743 746.155 263.982 707.631 230.422C710.127 249.099 722.355 262.683 710.573 280.454Z" fill="#6C3203"/>
<path fill-rule="evenodd" clip-rule="evenodd" d="M866.994 491.727C865.903 491.989 865.234 493.078 865.496 494.155C865.759 495.244 866.836 495.913 867.926 495.651C870.067 495.139 884.581 495.612 897.124 503.946C903.994 508.5 910.193 515.457 913.267 525.97C913.582 527.033 914.699 527.65 915.762 527.348C916.826 527.033 917.444 525.917 917.142 524.854C913.753 513.278 906.923 505.613 899.357 500.599C885.724 491.543 869.437 491.162 866.994 491.74V491.727Z" fill="#E6AE50"/>
<path fill-rule="evenodd" clip-rule="evenodd" d="M930.329 334.109L868.74 384.784V444.214C868.609 444.306 868.491 444.398 868.386 444.477C868.386 444.516 868.517 444.621 868.74 444.765V536.719L930.329 486.043V474.375C938.065 477.88 943.726 480.321 944.908 480.557L944.869 480.597V536.588L998.432 487.422L1000.4 427.742L995.476 432.428L1000.77 427.375L930.315 395.232V334.135L930.329 334.109Z" fill="#A76B45"/>
<path fill-rule="evenodd" clip-rule="evenodd" d="M574.827 384.784H868.727V444.726L944.54 480.557H945.341V480.938V536.666H868.727V536.719H606.862C591.942 536.719 574.814 537.795 574.814 521.756V384.798L574.827 384.784Z" fill="#BF8C63"/>
<path fill-rule="evenodd" clip-rule="evenodd" d="M868.149 443.597C867.861 443.834 867.808 444.254 868.044 444.542C868.281 444.831 868.701 444.884 868.99 444.647L929.882 396.426C930.171 396.19 930.224 395.77 929.987 395.481C929.751 395.193 929.331 395.14 929.042 395.376L868.149 443.597Z" fill="#612200"/>
<path fill-rule="evenodd" clip-rule="evenodd" d="M944.501 480.715C944.238 480.977 944.225 481.397 944.501 481.66C944.763 481.922 945.184 481.935 945.446 481.66L1000.82 428.044C1001.08 427.782 1001.1 427.362 1000.82 427.099C1000.56 426.837 1000.14 426.824 999.876 427.099L944.488 480.715H944.501Z" fill="#612200"/>
<path d="M703.192 396.833H595.251V440.71H703.192V396.833Z" fill="#612200"/>
<path d="M849.144 396.833H741.203V440.71H849.144V396.833Z" fill="#612200"/>
<path d="M958.253 515.076C961.764 515.076 964.61 507.848 964.61 498.932C964.61 490.016 961.764 482.788 958.253 482.788C954.742 482.788 951.896 490.016 951.896 498.932C951.896 507.848 954.742 515.076 958.253 515.076Z" fill="#612200"/>
<path fill-rule="evenodd" clip-rule="evenodd" d="M992.403 475.793C989.802 475.793 987.688 470.425 987.688 463.849C987.688 457.274 989.815 451.906 992.403 451.906C994.99 451.906 997.118 457.274 997.118 463.849C997.118 470.425 994.99 475.793 992.403 475.793Z" fill="#612200"/>
<path fill-rule="evenodd" clip-rule="evenodd" d="M869.712 385.165C869.712 384.797 869.41 384.496 869.043 384.496C868.675 384.496 868.373 384.797 868.373 385.165L867.926 444.188C867.926 444.45 868.084 444.687 868.307 444.792L944.133 481.253L945.302 535.997C945.302 536.365 945.617 536.666 945.985 536.653C946.353 536.653 946.655 536.338 946.642 535.971L945.46 480.846C945.46 480.583 945.328 480.334 945.079 480.216L869.266 443.768L869.712 385.178V385.165Z" fill="#612200"/>
<path fill-rule="evenodd" clip-rule="evenodd" d="M877.409 390.769L924.838 352.379V389.864L877.409 428.254V390.769Z" fill="#612200"/>
<path fill-rule="evenodd" clip-rule="evenodd" d="M725.258 385.165C725.258 384.797 724.956 384.496 724.588 384.496C724.22 384.496 723.918 384.797 723.918 385.165L723.012 535.984C723.012 536.351 723.314 536.653 723.682 536.653C724.05 536.653 724.352 536.351 724.352 535.984L725.258 385.165Z" fill="#612200"/>
<path fill-rule="evenodd" clip-rule="evenodd" d="M849.406 583.247C823.111 583.247 801.675 561.814 801.675 535.551C801.675 509.288 823.124 487.855 849.406 487.855C875.702 487.855 897.137 509.288 897.137 535.551C897.137 561.814 875.689 583.247 849.406 583.247Z" fill="#612200"/>
<path fill-rule="evenodd" clip-rule="evenodd" d="M849.406 560.108C835.865 560.108 824.818 549.07 824.818 535.538C824.818 522.006 835.865 510.968 849.406 510.968C862.948 510.968 873.994 522.006 873.994 535.538C873.994 549.07 862.948 560.108 849.406 560.108Z" fill="#A76B45"/>
<path d="M849.406 524.92C851.379 524.92 852.979 523.321 852.979 521.35C852.979 519.378 851.379 517.78 849.406 517.78C847.433 517.78 845.833 519.378 845.833 521.35C845.833 523.321 847.433 524.92 849.406 524.92Z" fill="#612200"/>
<path d="M863.618 539.108C865.591 539.108 867.19 537.509 867.19 535.538C867.19 533.566 865.591 531.968 863.618 531.968C861.645 531.968 860.045 533.566 860.045 535.538C860.045 537.509 861.645 539.108 863.618 539.108Z" fill="#612200"/>
<path d="M849.406 553.309C851.379 553.309 852.979 551.711 852.979 549.739C852.979 547.767 851.379 546.169 849.406 546.169C847.433 546.169 845.833 547.767 845.833 549.739C845.833 551.711 847.433 553.309 849.406 553.309Z" fill="#612200"/>
<path d="M835.208 539.108C837.181 539.108 838.78 537.509 838.78 535.538C838.78 533.566 837.181 531.968 835.208 531.968C833.234 531.968 831.635 533.566 831.635 535.538C831.635 537.509 833.234 539.108 835.208 539.108Z" fill="#612200"/>
<path fill-rule="evenodd" clip-rule="evenodd" d="M654.305 583.247C628.009 583.247 606.573 561.814 606.573 535.551C606.573 509.288 628.022 487.855 654.305 487.855C680.587 487.855 702.036 509.288 702.036 535.551C702.036 561.814 680.587 583.247 654.305 583.247Z" fill="#612200"/>
<path fill-rule="evenodd" clip-rule="evenodd" d="M654.305 557.115C642.418 557.115 632.711 547.429 632.711 535.538C632.711 523.66 642.405 513.96 654.305 513.96C666.192 513.96 675.898 523.646 675.898 535.538C675.898 547.416 666.205 557.115 654.305 557.115Z" fill="#A76B45"/>
<path fill-rule="evenodd" clip-rule="evenodd" d="M654.305 524.92C652.334 524.92 650.732 523.318 650.732 521.35C650.732 519.381 652.334 517.78 654.305 517.78C656.275 517.78 657.877 519.381 657.877 521.35C657.877 523.318 656.275 524.92 654.305 524.92Z" fill="#612200"/>
<path d="M668.516 539.108C670.489 539.108 672.089 537.509 672.089 535.538C672.089 533.566 670.489 531.968 668.516 531.968C666.543 531.968 664.944 533.566 664.944 535.538C664.944 537.509 666.543 539.108 668.516 539.108Z" fill="#612200"/>
<path fill-rule="evenodd" clip-rule="evenodd" d="M654.305 553.309C652.334 553.309 650.732 551.708 650.732 549.739C650.732 547.77 652.334 546.169 654.305 546.169C656.275 546.169 657.877 547.77 657.877 549.739C657.877 551.708 656.275 553.309 654.305 553.309Z" fill="#612200"/>
<path fill-rule="evenodd" clip-rule="evenodd" d="M643.679 535.538C643.679 537.506 642.076 539.108 640.106 539.108C638.136 539.108 636.533 537.506 636.533 535.538C636.533 533.569 638.136 531.968 640.106 531.968C642.076 531.968 643.679 533.569 643.679 535.538Z" fill="#612200"/>
<path fill-rule="evenodd" clip-rule="evenodd" d="M418.249 407.885C418.249 407.885 435.416 453.559 436.796 471.107C436.796 471.107 429.191 474.205 424.699 479.337C412.799 492.908 404.576 512.845 386.385 524.565C386.385 524.565 383.876 541.602 405.864 543.925C405.864 543.925 468.489 508.382 478.537 484.036C488.599 459.689 475.871 408.974 475.871 408.974L418.249 407.885Z" fill="#E6B59F"/>
<path fill-rule="evenodd" clip-rule="evenodd" d="M475.845 409.709C475.845 409.709 507.197 452.181 518.072 468.509C518.072 468.509 513.305 474.218 512.582 482.552C510.98 501.282 512.201 533.241 508.813 543.15C508.813 543.15 516.93 560.974 536.33 550.658C536.33 550.658 564.792 481.214 559.565 451.696C554.337 422.178 518.808 384.981 518.808 384.981L475.845 409.709Z" fill="#E6B59F"/>
<path fill-rule="evenodd" clip-rule="evenodd" d="M419.537 350.751C405.22 376.883 409.173 395.547 412.207 410.667C417.002 434.581 430.031 461.356 430.609 462.34C431.542 463.928 471.786 469.716 484.632 460.437C484.632 460.437 481.401 436.471 480.179 416.967C479.864 412.032 481.151 411.599 480.928 406.966C480.494 397.463 474.439 394.628 472.469 385.428L419.537 350.765V350.751Z" fill="#D06C19"/>
<path fill-rule="evenodd" clip-rule="evenodd" d="M454.921 396.741C454.921 396.741 464.904 404.433 476.922 419.526C489.111 434.83 507.788 456.263 508.484 456.565C509.837 457.129 540.244 449.425 556.518 432.034C556.518 432.034 529.171 386.727 508.497 363.785L455.552 363.942L454.921 396.741Z" fill="#D06C19"/>
<path fill-rule="evenodd" clip-rule="evenodd" d="M485.577 405.916C485.643 405.548 485.407 405.207 485.039 405.128C484.671 405.062 484.33 405.299 484.251 405.666L480.967 422.939C480.902 423.306 481.138 423.661 481.506 423.726C481.755 423.779 481.992 423.674 482.149 423.503L489.308 414.972C489.544 414.683 489.505 414.263 489.229 414.027C488.94 413.791 488.52 413.83 488.283 414.106L482.78 420.668L485.591 405.916H485.577Z" fill="#612200"/>
<path fill-rule="evenodd" clip-rule="evenodd" d="M397.838 513.107C393.451 514.892 373.408 535.275 372.134 537.756C370.86 540.236 378.977 554.713 383.929 561.827C386.464 565.463 407.913 582.039 428.008 578.994C442.562 562.457 428.665 550.684 412.457 545.788C413.022 545.053 419.261 537.467 420.39 535.945L397.838 513.094V513.107Z" fill="#32082F"/>
<path fill-rule="evenodd" clip-rule="evenodd" d="M508.143 533.057C507.447 534.96 506.343 541.011 505.476 547.455C504.452 555.16 501.799 566.709 502.574 569.111C505.476 578.089 572.66 579.323 575.747 569.597C578.334 561.433 574.249 548.886 541.767 549.135C541.189 549.135 543.948 535.262 543.948 535.262L508.156 533.07L508.143 533.057Z" fill="#32082F"/>
<path fill-rule="evenodd" clip-rule="evenodd" d="M504.294 564.649C503.966 564.465 503.559 564.57 503.375 564.898C503.191 565.226 503.296 565.633 503.624 565.817C509.68 569.321 526.807 571.434 542.91 571.71C558.488 571.986 573.199 570.529 576.193 566.946C576.43 566.657 576.39 566.237 576.114 566.001C575.825 565.764 575.405 565.804 575.169 566.079C572.45 569.334 558.159 570.647 542.936 570.371C527.017 570.083 510.166 568.048 504.294 564.649Z" fill="#D06C19"/>
<path fill-rule="evenodd" clip-rule="evenodd" d="M375.982 533.91C375.825 533.582 375.418 533.438 375.089 533.608C374.761 533.766 374.616 534.173 374.787 534.501C381.407 547.98 387.134 557.194 395.343 563.573C403.565 569.951 414.23 573.443 430.688 575.424C431.056 575.464 431.397 575.201 431.437 574.834C431.476 574.466 431.213 574.125 430.846 574.086C414.638 572.13 404.182 568.731 396.17 562.509C388.145 556.275 382.51 547.193 375.982 533.91Z" fill="#D06C19"/>
<path fill-rule="evenodd" clip-rule="evenodd" d="M506.987 260.137C510.244 251.002 510.704 242.497 526.203 247.287C553.707 255.806 558.317 303.436 558.317 303.436L606.954 322.021C606.954 322.021 610.895 337.128 595.737 350.056C595.737 350.056 551.106 339.963 536.842 329.791C518.598 316.784 498.331 284.365 506.987 260.124V260.137Z" fill="#C32817"/>
<path fill-rule="evenodd" clip-rule="evenodd" d="M591.968 350.896C595.961 350.922 601.845 351.434 605.221 353.967C607.388 355.595 612.326 362.669 611.341 365.399C610.409 367.971 608.005 368.234 608.005 368.234C608.767 371.358 605.326 372.053 605.326 372.447C605.404 377.303 600.65 375.715 600.807 376.476C602.055 382.356 596.591 386.675 594.253 385.073C592.9 384.155 594.673 379.39 593.728 378.288C592.283 376.595 590.076 375.098 588.763 374.652C586.385 373.825 582.642 375.348 580.83 375.19C576.075 376.621 567.958 369.271 567.958 369.271C567.958 369.271 513.318 353.862 500.892 345.173C488.467 336.485 493.458 325.578 493.458 325.578L536.934 326.195L579.897 350.2L591.968 350.896Z" fill="#E6B59F"/>
<path fill-rule="evenodd" clip-rule="evenodd" d="M596.788 368.549C596.539 368.273 596.118 368.26 595.842 368.51C595.567 368.759 595.553 369.179 595.803 369.455C597.169 370.964 598.141 372.434 598.785 373.812C599.56 375.44 599.901 376.949 599.98 378.222C600.006 378.59 600.321 378.878 600.689 378.852C601.057 378.826 601.346 378.511 601.32 378.143C601.228 376.713 600.847 375.033 599.993 373.235C599.284 371.738 598.246 370.163 596.788 368.549Z" fill="#CF7866"/>
<path fill-rule="evenodd" clip-rule="evenodd" d="M601.149 363.26C600.899 362.984 600.479 362.971 600.203 363.22C599.927 363.47 599.914 363.89 600.164 364.165C601.53 365.675 602.502 367.145 603.145 368.523C603.92 370.15 604.262 371.66 604.34 372.933C604.367 373.3 604.682 373.589 605.05 373.563C605.418 373.537 605.706 373.222 605.68 372.854C605.588 371.423 605.207 369.744 604.354 367.945C603.644 366.449 602.607 364.874 601.149 363.26Z" fill="#CF7866"/>
<path fill-rule="evenodd" clip-rule="evenodd" d="M604.577 358.43C604.327 358.154 603.907 358.141 603.631 358.39C603.355 358.64 603.342 359.06 603.592 359.335C604.958 360.845 605.93 362.315 606.573 363.693C607.348 365.32 607.69 366.83 607.769 368.103C607.795 368.47 608.11 368.759 608.478 368.733C608.846 368.707 609.135 368.392 609.108 368.024C609.016 366.593 608.636 364.913 607.782 363.115C607.073 361.619 606.035 360.044 604.577 358.43Z" fill="#CF7866"/>
<path fill-rule="evenodd" clip-rule="evenodd" d="M527.424 379.377C526.676 378.156 528.226 346.788 530.774 331.064C534.241 309.67 547.402 266.095 537.998 253.246C530.892 243.547 516.93 241.736 505.66 239.071C468.148 230.225 436.625 284.024 407.939 350.594C436.467 406.388 528.606 388.788 527.437 379.364L527.424 379.377Z" fill="#C32817"/>
<path fill-rule="evenodd" clip-rule="evenodd" d="M461.344 260.229C466.007 251.737 474.978 241.959 490.621 246.251C516.693 253.377 516.457 315.327 516.457 315.327L577.52 348.835C577.52 348.835 579.135 367.552 562.126 377.907C562.126 377.907 499.434 359.204 486.957 346.906C470.998 331.169 448.958 282.804 461.357 260.229H461.344Z" fill="#C32817"/>
<path fill-rule="evenodd" clip-rule="evenodd" d="M531.273 322.231C531.181 322.585 531.391 322.953 531.746 323.058C532.1 323.15 532.468 322.94 532.56 322.572C533.808 317.9 535.673 310.418 537.157 302.215C538.641 294.012 539.732 285.087 539.429 277.567C539.416 277.199 539.101 276.91 538.733 276.924C538.366 276.937 538.077 277.252 538.09 277.619C538.405 285.035 537.315 293.855 535.844 301.979C534.373 310.117 532.508 317.558 531.26 322.231H531.273Z" fill="#931810"/>
<path fill-rule="evenodd" clip-rule="evenodd" d="M503.48 255.241C503.27 254.939 502.849 254.86 502.547 255.084C502.245 255.294 502.18 255.714 502.39 256.015C515.931 275.138 515.774 315.222 515.774 315.327C515.774 315.59 515.932 315.826 516.155 315.931L576.85 349.242C576.968 351.828 577.06 367.827 562.008 377.172C557.476 375.807 499.303 358.141 487.416 346.42C484.238 343.283 480.796 338.821 477.447 333.505C474.137 328.268 470.906 322.205 468.069 315.773C465.455 309.828 463.17 303.58 461.489 297.385C459.939 291.702 458.888 286.058 458.533 280.743C458.507 280.375 458.192 280.087 457.811 280.113C457.443 280.139 457.154 280.454 457.18 280.822C457.548 286.229 458.612 291.965 460.175 297.727C461.883 303.987 464.181 310.3 466.834 316.311C469.698 322.795 472.955 328.911 476.304 334.214C479.719 339.608 483.213 344.15 486.471 347.365C499.067 359.781 561.732 378.471 561.916 378.537C562.087 378.589 562.284 378.563 562.454 378.471C579.831 367.893 578.176 348.835 578.176 348.783C578.163 348.559 578.032 348.363 577.835 348.244L517.127 314.933C517.101 310.72 516.509 273.629 503.493 255.241H503.48Z" fill="#931810"/>
<path fill-rule="evenodd" clip-rule="evenodd" d="M618.881 326.129C622.873 326.378 628.718 327.219 631.949 329.935C634.025 331.681 638.556 339.018 637.413 341.695C636.336 344.215 633.92 344.333 633.92 344.333C634.511 347.497 631.03 347.995 631.004 348.389C630.807 353.232 626.144 351.382 626.262 352.156C627.168 358.102 621.481 362.092 619.235 360.372C617.935 359.375 619.971 354.728 619.091 353.573C617.751 351.802 615.623 350.174 614.336 349.662C612.011 348.717 608.189 350.017 606.376 349.754C601.543 350.909 596.67 343.113 596.67 343.113C597.668 336.721 596.276 331.55 606.101 324.265L618.867 326.129H618.881Z" fill="#E6B59F"/>
<path fill-rule="evenodd" clip-rule="evenodd" d="M623.254 343.034C623.005 342.758 622.585 342.745 622.309 342.995C622.033 343.244 622.02 343.664 622.269 343.94C623.635 345.449 624.594 346.919 625.251 348.297C626.026 349.925 626.367 351.434 626.446 352.707C626.472 353.075 626.788 353.363 627.155 353.337C627.523 353.311 627.812 352.996 627.786 352.628C627.694 351.198 627.313 349.518 626.459 347.72C625.75 346.223 624.712 344.648 623.254 343.034Z" fill="#CF7866"/>
<path fill-rule="evenodd" clip-rule="evenodd" d="M627.615 337.745C627.366 337.469 626.945 337.456 626.669 337.705C626.394 337.955 626.38 338.375 626.63 338.65C627.996 340.16 628.968 341.63 629.612 343.008C630.387 344.648 630.728 346.145 630.807 347.418C630.833 347.785 631.148 348.074 631.516 348.048C631.884 348.021 632.173 347.707 632.147 347.339C632.055 345.908 631.674 344.228 630.82 342.43C630.111 340.934 629.073 339.359 627.615 337.745Z" fill="#CF7866"/>
<path fill-rule="evenodd" clip-rule="evenodd" d="M631.03 332.928C630.781 332.652 630.36 332.639 630.084 332.888C629.809 333.138 629.795 333.558 630.045 333.833C631.411 335.343 632.37 336.813 633.027 338.191C633.802 339.818 634.143 341.328 634.222 342.601C634.248 342.968 634.563 343.257 634.931 343.231C635.299 343.205 635.588 342.89 635.562 342.522C635.47 341.091 635.089 339.411 634.235 337.613C633.526 336.117 632.488 334.542 631.03 332.928Z" fill="#CF7866"/>
<path fill-rule="evenodd" clip-rule="evenodd" d="M602.476 171.74C602.476 171.74 607.138 265.781 554.364 253.181C501.589 240.581 570.926 172.659 570.926 172.659L602.476 171.74Z" fill="#D06C19"/>
<path fill-rule="evenodd" clip-rule="evenodd" d="M501.405 231.354L538.011 242.589L534.281 254.703C531.102 265.032 535.673 274.64 527.149 273.288C516.759 271.634 496.952 248.902 499.106 239.202L501.392 231.354H501.405Z" fill="#E6B59F"/>
<path fill-rule="evenodd" clip-rule="evenodd" d="M501.418 231.511L517.56 236.472L536.606 247.353L534.241 255.057C518.349 256.514 503.323 243.626 499.198 238.887L501.418 231.511Z" fill="#CF7866"/>
<path fill-rule="evenodd" clip-rule="evenodd" d="M584.98 156.751C584.98 156.751 579.438 109.095 517.035 116.97C454.633 124.845 451.651 204.132 482.071 213.989L584.98 156.751Z" fill="#6C3203"/>
<path fill-rule="evenodd" clip-rule="evenodd" d="M525.428 247.97C585.663 265.124 587.226 213.149 596.263 163.261L504.294 139.466C485.617 183.119 453.766 227.574 525.428 247.97Z" fill="#E6B59F"/>
<path fill-rule="evenodd" clip-rule="evenodd" d="M587.909 208.674C590.037 199.998 591.666 190.548 593.268 180.849C591.456 173.801 588.093 166.464 583.549 159.967L504.281 139.453C497.478 155.36 488.927 171.373 484.264 186.282C485.512 187.936 487.101 188.907 489.006 188.947C502.442 189.262 508.209 179.969 511.111 173.433H511.308C508.143 186.112 523.865 178.919 530.288 172.094H530.38C524.85 182.529 539.075 188.632 550.318 175.52C550.095 188.763 561.115 185.626 564.398 177.266C562.599 192.858 571.491 193.501 578.663 181.531C577.861 187.831 576.745 198.318 584.796 208.004C585.676 209.067 586.767 209.199 587.883 208.661L587.909 208.674Z" fill="#CF7866"/>
<path fill-rule="evenodd" clip-rule="evenodd" d="M492.381 180.613C492.381 180.613 485.669 168.131 472.272 168.826C461.883 169.364 460.123 190.916 466.69 200.208C472.233 208.057 488.047 203.489 488.769 200.248L492.381 180.613Z" fill="#E6B59F"/>
<path fill-rule="evenodd" clip-rule="evenodd" d="M470.749 176.373C470.381 176.203 469.947 176.36 469.777 176.714C469.606 177.082 469.763 177.515 470.118 177.686C470.328 177.791 470.657 177.843 471.129 177.935C473.861 178.421 482.123 179.917 481.624 192.819C481.611 193.226 481.926 193.554 482.32 193.567C482.727 193.58 483.056 193.265 483.069 192.871C483.621 178.709 474.413 177.056 471.366 176.504C471.011 176.439 470.762 176.4 470.722 176.373H470.749Z" fill="#CF7866"/>
<path fill-rule="evenodd" clip-rule="evenodd" d="M468.017 185.403C467.833 185.758 467.977 186.204 468.332 186.374C468.686 186.558 469.133 186.414 469.304 186.059C469.304 186.046 472.548 179.497 479.562 182.87C479.917 183.041 480.363 182.896 480.534 182.529C480.705 182.161 480.547 181.728 480.192 181.558C471.878 177.568 468.017 185.377 468.003 185.403H468.017Z" fill="#CF7866"/>
<path fill-rule="evenodd" clip-rule="evenodd" d="M580.948 176.032C580.147 182.332 577.415 194.105 585.466 203.804C588.395 207.335 593.57 200.628 594.963 193.278C597.366 180.639 590.628 161.699 578.781 149.06C562.402 131.578 538.339 122.075 533.768 121.471C479.995 114.358 473.086 184.366 489.662 184.76C503.099 185.075 510.494 172.383 513.397 165.834H513.594C510.428 178.512 524.535 174.733 530.944 167.908H531.036C525.507 178.342 541.518 182.502 552.761 169.391C551.579 174.562 551.435 179.208 553.996 180.849C560.813 185.232 568.299 169.181 568.299 169.181C568.299 169.181 559.972 187.267 571.202 184.537C575.34 183.526 578.544 180.048 580.948 176.045V176.032Z" fill="#4F2400"/>
<path fill-rule="evenodd" clip-rule="evenodd" d="M500.013 172.528C520.214 141.5 560.524 145.792 584.166 167.803C594.726 177.633 601.898 191.756 600.125 206.193C599.034 215.066 613.141 181.4 597.379 147.748C584.179 119.555 552.039 104.987 521.317 109.935C513.83 111.142 505.949 113.597 498.62 117.167C458.993 136.5 434.589 221.654 477.776 231.446C508.248 238.349 490.687 186.86 500.026 172.528H500.013Z" fill="#D06C19"/>
<path fill-rule="evenodd" clip-rule="evenodd" d="M472.062 174.903C480.376 171.556 489.216 179.681 491.803 193.029C494.391 206.377 489.754 219.909 481.453 223.256C473.139 226.602 464.3 218.478 461.712 205.13C459.125 191.782 463.761 178.25 472.075 174.903H472.062Z" fill="#B81916"/>
<path fill-rule="evenodd" clip-rule="evenodd" d="M516.641 110.84C527.424 120.933 533.007 135.568 532.744 150.924L532.967 150.884C533.348 150.832 533.729 150.766 534.11 150.727H534.123L534.359 150.688H534.399C534.793 150.635 535.187 150.583 535.581 150.543H535.791L535.817 150.517H535.883C536.277 150.478 536.671 150.438 537.065 150.412H537.302C537.682 150.373 538.063 150.346 538.457 150.333H538.786C539.154 150.307 539.521 150.294 539.889 150.281H540.257C540.598 150.281 540.94 150.281 541.281 150.281H541.334C541.452 150.281 541.57 150.281 541.689 150.281H541.754C542.083 150.281 542.398 150.294 542.726 150.307H542.779C542.91 150.307 543.055 150.307 543.186 150.32H543.252C543.554 150.333 543.856 150.346 544.145 150.373H544.197C544.368 150.373 544.539 150.399 544.696 150.412H544.749C545.025 150.438 545.314 150.451 545.603 150.478H545.642C545.839 150.504 546.023 150.517 546.22 150.53H546.286C546.535 150.556 546.772 150.583 547.021 150.609H547.074C547.297 150.635 547.52 150.661 547.757 150.688C549.688 135.121 546.312 120.487 536.119 109.042C531.207 108.858 526.255 109.147 521.33 109.948C519.793 110.197 518.23 110.499 516.654 110.853L516.641 110.84Z" fill="#B81916"/>
<path fill-rule="evenodd" clip-rule="evenodd" d="M553.024 122.377C556.386 130.108 558.067 139.859 556.084 151.961L556.032 152.289H556.097L556.124 152.315H556.189L556.216 152.341C556.61 152.446 556.991 152.551 557.371 152.669H557.437V152.696H557.516L557.542 152.722H557.608L557.634 152.748H557.673C558.041 152.866 558.409 152.984 558.777 153.089H558.842V153.116L559.079 153.194H559.131C559.486 153.326 559.841 153.444 560.182 153.562H560.235L560.563 153.693H560.616C560.931 153.811 561.246 153.929 561.561 154.048H561.601V154.074H561.627C561.758 154.126 561.877 154.166 562.008 154.218H562.047V154.244H562.087C562.363 154.363 562.638 154.468 562.914 154.573H562.954C563.138 154.664 563.321 154.73 563.505 154.809H563.545C563.781 154.927 564.018 155.019 564.254 155.111H564.293C564.517 155.216 564.74 155.308 564.95 155.399H564.989V155.426C565.186 155.504 565.384 155.596 565.581 155.675H565.607C565.869 155.793 566.132 155.911 566.382 156.029H566.408C566.566 156.121 566.736 156.187 566.894 156.266H566.92C567.196 156.41 567.485 156.541 567.761 156.686H567.774C567.918 156.764 568.063 156.83 568.207 156.909H568.234C568.549 157.079 568.864 157.237 569.179 157.394H569.193L569.508 157.565C569.849 157.749 570.178 157.919 570.519 158.103H570.545C570.677 157.644 570.821 157.198 570.939 156.738C572.227 152.144 572.896 147.826 573.067 143.81C573.474 134.61 569.258 123.716 565.278 116.195C558.724 113.098 551.671 110.971 544.407 109.882C547.704 113.544 551.067 117.993 553.011 122.443L553.024 122.377Z" fill="#B81916"/>
<path fill-rule="evenodd" clip-rule="evenodd" d="M578.873 124.516C582.629 136.342 580.79 149.244 574.525 160.374L574.656 160.466C575.037 160.702 575.418 160.951 575.786 161.201L575.917 161.292H575.93C576.311 161.555 576.679 161.817 577.06 162.08L577.152 162.146C577.533 162.421 577.914 162.684 578.295 162.959L578.374 163.025C578.754 163.314 579.135 163.589 579.516 163.878L579.569 163.917C579.95 164.206 580.331 164.508 580.698 164.81L580.751 164.849C581.132 165.151 581.5 165.466 581.867 165.781L581.894 165.807H581.907C582.275 166.136 582.642 166.464 583.01 166.779C583.391 167.12 583.759 167.461 584.127 167.802H584.14C584.258 167.934 584.376 168.052 584.507 168.157H584.521V168.183L584.757 168.406C590.668 160.715 594.332 152.171 594.949 143.154C590.773 135.856 585.256 129.596 578.82 124.503L578.873 124.516Z" fill="#B81916"/>
<path fill-rule="evenodd" clip-rule="evenodd" d="M536.842 211.863C540.415 214.646 544.605 216.26 549.504 216.549C549.491 216.614 549.464 216.667 549.438 216.732C548.23 219.987 544.618 221.641 541.36 220.447L540.48 220.119C537.223 218.911 535.568 215.302 536.763 212.047C536.79 211.994 536.803 211.929 536.829 211.876L536.842 211.863Z" fill="#CF7866"/>
<path fill-rule="evenodd" clip-rule="evenodd" d="M522.959 216.719C514.605 217.572 515.144 231.761 530.656 238.126C539.916 241.932 552.039 242.142 553.615 235.501C555.257 228.545 548.558 227.744 541.505 226.694C531.969 225.264 530.918 215.919 522.959 216.732V216.719Z" fill="#290000"/>
<path fill-rule="evenodd" clip-rule="evenodd" d="M568.588 188.881C567.971 189.131 567.63 189.944 567.827 190.706C568.024 191.467 568.693 191.887 569.311 191.638C569.337 191.638 576.719 188.606 578.557 196.31C578.741 197.084 579.398 197.518 580.015 197.294C580.633 197.071 581.001 196.257 580.817 195.496C578.295 184.904 568.615 188.868 568.588 188.881Z" fill="#290000"/>
<path fill-rule="evenodd" clip-rule="evenodd" d="M518.073 226.156C519.386 230.409 523.366 235.134 530.656 238.126C535.292 240.029 540.651 241.04 545.038 240.725C545.025 233.546 537.013 229.989 528.764 226.786C524.285 225.054 520.673 225.329 518.073 226.156Z" fill="#C42B23"/>
<path fill-rule="evenodd" clip-rule="evenodd" d="M509.167 201.757C513.476 203.148 516.365 206.127 515.63 208.411C514.894 210.695 510.796 211.404 506.501 210.012C502.193 208.621 499.303 205.642 500.039 203.358C500.774 201.074 504.872 200.366 509.167 201.757Z" fill="#CF7866"/>
<path fill-rule="evenodd" clip-rule="evenodd" d="M575.734 217.651C580.108 218.832 583.142 221.654 582.511 223.964C581.881 226.274 577.835 227.193 573.475 226.012C569.101 224.83 566.067 222.009 566.697 219.699C567.328 217.389 571.373 216.47 575.734 217.651Z" fill="#CF7866"/>
<path fill-rule="evenodd" clip-rule="evenodd" d="M527.792 196.678C528.659 192.569 527.74 188.146 523.629 187.28C519.518 186.414 513.765 189.433 512.898 193.541L512.661 194.656C511.794 198.764 514.421 202.807 518.532 203.673C522.644 204.539 526.689 201.914 527.556 197.806L527.792 196.691V196.678Z" fill="white"/>
<path fill-rule="evenodd" clip-rule="evenodd" d="M511.558 197.032C511.506 197.452 511.808 197.832 512.228 197.885C512.648 197.937 513.029 197.636 513.082 197.216C513.476 194.013 514.986 191.401 516.983 189.721C518.204 188.698 519.623 188.015 521.068 187.766C522.499 187.529 523.97 187.713 525.349 188.396C527.254 189.341 528.975 191.244 530.196 194.315C530.354 194.709 530.8 194.893 531.181 194.748C531.575 194.591 531.772 194.144 531.615 193.764C530.249 190.312 528.239 188.146 526.019 187.044C524.338 186.204 522.552 185.994 520.805 186.283C519.084 186.571 517.429 187.372 515.998 188.566C513.712 190.483 512.005 193.436 511.545 197.045L511.558 197.032Z" fill="#290000"/>
<path fill-rule="evenodd" clip-rule="evenodd" d="M574.25 209.881C575.077 205.957 573.961 200.707 570.033 199.88C565.502 198.568 560.839 202.938 560.012 206.876L559.788 207.939C558.961 211.863 561.483 215.735 565.41 216.562C569.35 217.389 573.212 214.882 574.039 210.944L574.263 209.881H574.25Z" fill="white"/>
<path fill-rule="evenodd" clip-rule="evenodd" d="M576.561 209.619C577.271 205.642 575.13 201.914 571.754 201.311C568.392 200.694 565.069 203.424 564.359 207.401L564.162 208.477C563.453 212.454 565.594 216.181 568.97 216.785C572.332 217.402 575.655 214.672 576.364 210.695L576.561 209.619Z" fill="#290000"/>
<path fill-rule="evenodd" clip-rule="evenodd" d="M558.685 210.314C558.685 210.734 559.027 211.075 559.447 211.075C559.867 211.075 560.209 210.734 560.209 210.314C560.209 205.917 562.35 202.872 565.029 201.455C566.054 200.917 567.144 200.615 568.234 200.549C569.311 200.497 570.375 200.681 571.334 201.127C573.54 202.137 575.261 204.539 575.445 208.49C575.458 208.91 575.826 209.238 576.246 209.212C576.666 209.199 576.995 208.831 576.968 208.411C576.745 203.804 574.67 200.969 571.977 199.735C570.782 199.184 569.469 198.961 568.155 199.027C566.855 199.092 565.528 199.46 564.32 200.103C561.181 201.757 558.685 205.261 558.685 210.314Z" fill="#290000"/>
<path fill-rule="evenodd" clip-rule="evenodd" d="M579.503 207.046C579.766 205.812 578.978 204.605 577.743 204.342C576.509 204.08 575.3 204.867 575.038 206.101L574.972 206.429C574.709 207.663 575.497 208.871 576.732 209.133C577.967 209.396 579.175 208.608 579.438 207.374L579.503 207.046Z" fill="white"/>
<path fill-rule="evenodd" clip-rule="evenodd" d="M531.01 197.124C532.035 193.068 529.973 189.249 526.4 188.592C522.841 187.936 519.124 190.692 518.099 194.735L517.823 195.824C516.799 199.867 518.861 203.699 522.434 204.356C525.993 205.012 529.71 202.269 530.735 198.213L531.01 197.124Z" fill="#290000"/>
<path fill-rule="evenodd" clip-rule="evenodd" d="M533.283 193.711C533.558 192.425 532.731 191.152 531.444 190.889C530.157 190.614 528.883 191.441 528.62 192.727L528.541 193.081C528.265 194.368 529.093 195.641 530.38 195.903C531.667 196.179 532.941 195.352 533.204 194.066L533.283 193.711Z" fill="white"/>
<path fill-rule="evenodd" clip-rule="evenodd" d="M538.51 243.77C534.163 242.877 530.025 241.355 526.111 239.124C526.085 239.15 526.072 239.176 526.059 239.202C525.087 240.685 526.873 242.864 530.065 244.059L530.931 244.387C534.11 245.581 537.499 245.345 538.471 243.849C538.484 243.822 538.51 243.796 538.523 243.77H538.51Z" fill="#CF7866"/>
<path fill-rule="evenodd" clip-rule="evenodd" d="M520.266 174.575C519.57 174.982 519.347 175.874 519.754 176.557C520.161 177.253 521.054 177.476 521.737 177.069C521.764 177.056 529.999 172.121 533.085 179.917C533.374 180.665 534.228 181.033 534.977 180.731C535.726 180.442 536.093 179.589 535.791 178.841C531.444 167.855 520.292 174.536 520.266 174.562V174.575Z" fill="#290000"/>
<path fill-rule="evenodd" clip-rule="evenodd" d="M549.937 214.094C549.307 215.026 548.308 215.092 547.691 214.226C547.087 213.359 547.1 211.903 547.717 210.971C548.348 210.039 549.346 209.973 549.963 210.839C550.568 211.706 550.555 213.163 549.937 214.094Z" fill="white"/>
</g>
<defs>
<clipPath id="clip0_56_868">
<rect width="1366" height="603" fill="white"/>
</clipPath>
</defs>
</svg>
